<svg width="58" height="58" fill="none" xmlns="http://www.w3.org/2000/svg"><path d="M47.9 23.6 47 21l.9-1.2c3.3-4.4-3-11.3-7.9-8.7-.5.3-1.1.3-2 .1-1.7-.4-7.1-1.3-8.2-1.4-3.7-.5-2.7 1.3-1.1 1.4 3.6.4 3.5.2 2.5 1.2-1.5 1.6-.2 7.8 2.2 10.5 2.1 2.5 7.3 3.8 9 2.3 3.1-3 2.3 11-1 15.3-10.3 13.4-32 .4-28.1-16.8l.4-2 1.9 1.3c3.3 2.1 4.6 1 2-1.7-4-4.6-2.6-10.3 1.7-6.6 1.4 1.2 3.2 1.4 4 .4 2-3 3.4-2 3.3 1.2 0 1.8-.8 3-4 6-3 2.7-3 3.6-.6 3.6 1.7 0 7.2-6.5 7.7-9 .7-3.6-4.2-6.5-7-4.3-.7.5-1.1.6-1.4.4-.2-.3-.2-.7.6-1.2.8-.4 2-.8 1.8-1.5-.4-1-3.2.3-3.6.5-.3.2-1.7 1-2.9 1-4 0-5.5 1.3-5.1 4.2.1 1.6 0 2-.9 3.7C4.3 32 13.8 48 28.7 48.3 43.8 48.7 52 38 47.9 23.6ZM42.8 21c-2.8 3-3.2 3.2-5.4 1.9-1.8-1.1-3.3-3.9-3.6-6.8-.3-3 1.3-3.8 4-2l1.3.9 1.3-.9c3.8-2.5 8.7-.1 2.4 7Z" fill="#000"/><path d="m16.6 29.3.8 3.9c2.3 12.2 21.9 12 22.9-.3.1-1.5.4-2.8.6-3 1.8-1-3-2.6-6.3-2-1 .3-5 .3-9.7.2-8.7-.3-8.8-.3-8.3 1.2ZM38 30V32c0 6.9-12.4 10.7-16.5 5-1.5-2-1.4-3.1-1.6-6.8 11.6-.4 11.8-.3 18-.1Z" fill="#000"/></svg>