<svg width="58" height="58" fill="none" xmlns="http://www.w3.org/2000/svg"><path d="M51.5 25.8c-1.6.8-1.8.8-3.7-1.5-.9-1.2-2.3-2.6-3.2-3.2l-1.5-1 1-1c2-2 .2-3.4-2.4-1.8l-1.5.9c-1.9-.7-5-2-7-2.3l-1.7-.4v-2c.2-1-.5-1.8-1.4-1.9-1.8-.1-2.6.4-2.2 2.3l.2 1.3-7 .8c-2.5.4-2.7.3-2.7-.8 0-2.1-5.3-2.3-3.7.8.3.8.6 1.4.5 1.5l-2 1.1c-1.1.6-2.8 1.9-3.8 2.8l-1.9 1.8-1.9-1C2.8 20.8 2.1 22 4 24.8c1 1.5 1 1.5.3 2.6-1.9 2.8-.7 5.6 4.5 10.9 5.3 5.5 17 10 19.4 7.4.7-.7-1-3-2.1-3-8 0-19.4-8-18.3-12.8C9.1 24 20.5 16.4 33 18.7c7.1 1.3 11.4 4.9 14.7 12.4l1.1 2.6c.7 1.3-8.2 5.9-15.6 8.2-2.5.7-2.8 1-2.8 1.8 0 3.2 6.6 2.5 11.3-1.1 5.4-4.3 12-6.8 10.1-11.4-.4-1-.6-1.8-.3-2 1.4-.5 3.4-2 3.6-2.7.3-1.4-1.7-1.8-3.6-.7Z" fill="#000"/><path d="M38.4 29.8c0-3.3-1.4-6.2-3-7.2-.6-.3-1.4 0-1 1 1.6 5.4-3.9 6-5.5 4.7-3.9-2.8-2-5.8.4-6.6 1.3-.5.8-1.5-2.4-1.4-5.3.1-8.8 5-8.8 9.3 0 5.6 4 11.4 11 11 6.4-.3 9.5-4.3 9.3-10.8Z" fill="#000"/></svg>