<svg width="58" height="58" viewBox="0 0 58 58" fill="none" xmlns="http://www.w3.org/2000/svg">
<path d="M47.8682 23.6335L47.0608 20.9085L47.9691 19.7226C51.3249 15.3071 45.0927 8.39364 40.1473 11.043C39.6174 11.3205 38.9867 11.3457 38.0784 11.1186C36.4131 10.6897 30.963 9.78138 29.8529 9.65522C26.169 9.20105 27.1782 10.9925 28.7678 11.1439C32.3507 11.5223 32.275 11.3205 31.3162 12.3298C29.8276 13.9194 31.1144 20.1263 33.4862 22.8261C35.6309 25.2736 40.8286 26.5856 42.4434 25.0717C45.6478 22.0439 44.7647 36.0727 41.4594 40.3621C31.1649 53.7601 9.46563 40.8415 13.3765 23.6335L13.8308 21.615L15.6979 22.8514C18.9528 25.0213 20.29 23.9363 17.7921 21.1608C13.7045 16.6444 15.0924 10.8916 19.3817 14.5501C20.8199 15.7865 22.5862 15.9631 23.3179 14.9791C25.4878 12.0018 26.7745 13.0615 26.7493 16.2407C26.7493 17.9564 25.9419 19.1171 22.6366 22.1953C19.7349 24.8951 19.6088 25.8035 22.132 25.8035C23.8225 25.8035 29.2977 19.3189 29.7771 16.7705C30.4583 13.1876 25.6139 10.2608 22.7375 12.5064C22.0815 13.0363 21.6778 13.1372 21.4255 12.8849C21.1732 12.6325 21.2236 12.1784 22.0311 11.7242C22.8385 11.27 24.0748 10.9168 23.7973 10.1599C23.4188 9.15059 20.6181 10.4626 20.2396 10.6897C19.8611 10.8916 18.4986 11.7747 17.3379 11.7747C13.3513 11.7747 11.8375 12.9858 12.1655 15.8874C12.3421 17.5022 12.2412 17.9564 11.3329 19.5712C4.24278 32.1366 13.8307 48.0073 28.6922 48.3101C43.8059 48.6633 52.1071 37.9399 47.8682 23.6335ZM42.7714 21.0094C40.0464 24.0372 39.6427 24.1634 37.3971 22.8514C35.6056 21.7916 34.1422 19.0414 33.8394 16.1397C33.5366 13.0867 35.101 12.2793 37.7756 14.096L39.0877 15.0043L40.3996 14.1464C44.1591 11.6485 49.1045 13.9951 42.7714 21.0094Z" fill="black"/>
<path d="M16.5559 29.2602C16.7326 29.7901 17.111 31.5563 17.4138 33.1964C19.6594 45.4337 39.2897 45.2066 40.2989 32.9441C40.4251 31.4302 40.7026 30.0929 40.9045 29.9667C42.6707 28.8313 37.9524 27.3174 34.6218 27.9734C33.5873 28.1753 29.6259 28.2258 24.9076 28.0996C16.1775 27.8473 16.127 27.8473 16.5559 29.2602ZM37.9524 30.0929V31.96C37.9524 38.8987 25.5636 42.7087 21.4508 37.0064C20.0379 35.0635 20.0632 33.8776 19.8613 30.2191C31.4678 29.8406 31.7454 29.891 37.9524 30.0929Z" fill="black"/>
</svg>
