<svg width="58" height="58" viewBox="0 0 58 58" fill="none" xmlns="http://www.w3.org/2000/svg">
<path d="M51.5166 25.7553C49.9051 26.6403 49.6827 26.5813 47.8489 24.2802C46.932 23.1296 45.4873 21.7136 44.6259 21.1235L43.0977 20.0615L44.0979 19.0584C46.1818 17.0228 44.3202 15.7248 41.6528 17.3178L40.1525 18.2029C38.3186 17.4948 35.1233 16.2263 33.1505 15.8723C31.3723 15.5478 31.4834 15.5773 31.4834 15.5478C31.4834 15.5773 31.4834 15.6658 31.5945 13.4236C31.6501 12.4796 30.9833 11.6831 30.122 11.6241C28.3159 11.4766 27.5101 11.9781 27.8713 13.9252L28.1214 15.1937C28.1214 15.1937 22.5087 15.8428 21.175 16.0198C18.5632 16.3738 18.3688 16.3148 18.3688 15.1937C18.3688 13.0696 13.1451 12.9221 14.6733 16.0198C15.0345 16.7573 15.2568 17.4063 15.2012 17.4949C15.1456 17.5539 14.201 18.0849 13.1451 18.6454C12.0893 19.2059 10.3666 20.4745 9.36631 21.4186L7.50478 23.1591L5.64311 22.2151C2.80902 20.799 2.0589 21.8906 3.92051 24.7817C4.89299 26.3158 4.89297 26.3158 4.17055 27.4369C2.33672 30.21 3.50362 33.0126 8.67168 38.2934C14.0064 43.7512 25.7596 48.2059 28.1492 45.6688C28.7882 44.9902 27.0934 42.7186 25.9542 42.7186C17.952 42.7186 6.56003 34.6942 7.72701 29.8855C9.14406 24.0442 20.536 16.4328 33.0116 18.7044C40.0968 19.973 44.3758 23.6017 47.6545 31.0655C48.238 32.3931 48.7658 33.6027 48.8492 33.7207C49.516 34.9597 40.597 39.5915 33.2061 41.8631C30.7055 42.6301 30.3998 42.8366 30.3998 43.7217C30.3998 46.9078 36.9849 46.2293 41.6528 42.5711C47.0988 38.3229 53.795 35.7858 51.8223 31.154C51.4055 30.151 51.2387 29.3544 51.461 29.2659C52.8502 28.7349 54.9341 27.1418 55.0731 26.5223C55.3509 25.1357 53.4338 24.6637 51.5166 25.7553Z" fill="black"/>
<path d="M38.4209 29.8021C38.3407 26.5484 37.0323 23.5562 35.4033 22.5975C34.8425 22.2779 34.0413 22.6556 34.3351 23.5852C35.9641 28.9596 30.5163 29.5116 28.8873 28.3495C25.0151 25.5316 26.8577 22.5394 29.2879 21.6969C30.6231 21.2321 30.1157 20.2444 26.8844 20.3025C21.5969 20.4187 18.0984 25.2992 18.1252 29.5697C18.1519 35.1764 22.1843 40.9866 29.1276 40.5799C35.4567 40.2603 38.5544 36.2513 38.4209 29.8021Z" fill="black"/>
</svg>
