<svg width="200" height="270" fill="none" xmlns="http://www.w3.org/2000/svg"><path fill-rule="evenodd" clip-rule="evenodd" d="M127.4 129.1c-4.4-4-3-8-4.4-12.9-2.8-6-8.6-12.1-15.4-13.4-3.3-2-7.7-.9-10 2.2-2.2.6-2.2 3.6-3 5.3-1.3 3.5-2.3 7-3.2 10.6-26 5.4-45.8 23.1-50 50-.7 3.8-1.3 7.7-1.8 11.7-.3 3.3-2 8.7 1.5 10.9 0 2.4.4 4.9 1.3 7.2.3 2.2.6 4.5 1.4 6.7 1.6 3.8 1.9 8 3.7 11.7a20 20 0 0 0 5.6 7c1 .9 2.3 1.8 2.5 3.2 0 2 1.5 5 4 4 1.7.7 3.6.9 5.5.9 31.3-1.4 62.7-1.5 94 0 1.2 0 2.2-1 2.2-2-.5-12-1.8-24-3.7-35.7-4.4-24.4-9-51.7-30.2-67.4Z" fill="#fff"/><path fill-rule="evenodd" clip-rule="evenodd" d="M93.9 117v-.3c.8-2 1.7-2.1 1.2-.2v.3a15 15 0 0 1-1.7 4.7c-1.5 2.4-5.6 3.4-8.2 4.2v.2c1.6.3 3.3 1 4.7 2 1.2.7 2.3 1.7 3.2 2.9l4.1-1.8c1.4-.6 2.8-1.3 4.2-1.6 2.1-.3 5.4.8 5.1 3.5 0 .3-.2.6-.5.7h.6c1.4 0 3.4 1.3 2.7 3-.2.3-.8 0-.8-.3-.3-2.3-2.7-1.8-4.3-1.4l-4.5 1.3a21 21 0 0 0-4.4 2.1c-1.4 1-2.8 2-2.7 4-.8-1.6.6-3.3 1.8-4.2a21 21 0 0 1 5.7-3l3.1-1h.3l1.9-.4a.8.8 0 0 1-.6-.6c-1-3.7-6-.7-8 .2l-4.4 1.9h-.2a7.9 7.9 0 0 0-3 2.3c-2 2.6-.2 6 .4 8.8.2.8.4 1.6.4 2.4 0 .7-.2 1.3-.4 2v.5c-.6 2.2-1.8 4.3-3 6.4a147.6 147.6 0 0 1-19 26.3c-2.6 3-5.6 5.8-8.2 8.9a31.5 31.5 0 0 0-4.8 7.2v.2c-.4.8-.7 1.5-1.3 2.1-.3.3-.9.2-1-.3-.4-2 1-4.3 2.1-6a40 40 0 0 1 5.2-6.5c-1.9.6-3.9.7-5.8 1-1.9.4-3.8.8-5.7 1.4a25 25 0 0 0-7.1 3.6l-.2.1c1.1 2.8 2 5.8 2.9 8.7l1.8 6 1.3 4.4c1 3.3 1.8 6.8 3.5 9.7.8 1.3 1.8 2.4 3 3.4.5.4 1 .8 1.7 1l1.1.8c.3-.3.6-.4 1-.4h.1c1.4.3 3-.2 4.2-.8 1.3-.7 2.6-1.4 3.7-2.4 2.2-1.9 4-4.2 5.8-6.5 6.3-8 11.6-17 16-26.2a274 274 0 0 0 9.1-21.6l.1-.4c.9-2.2 1.6-4.6 3-6.6v-.2c.4-.6 1.2-.8 2-1.2l2.3-1c.6-.3 1.5-.5 2-1 .5-.6.6-1.7.9-2.4l1.8-4.9c.6-1.4 1-3 1.8-4.2a6.8 6.8 0 0 1 2.7-2.4l.2-.2c.4-.2 1-.6 1.1-1 .3-1-.4-1.7-1-2.1-1.6-1-3.4.1-4.8.9-1.3.8-2.6 1.7-4 2.3h-.1c1.2-1 2.6-2 4-2.8l.2-.3c1-.5 2-1.1 3-1.3-.2 0-.2-.3 0-.3 2.2-.3 4.3 0 6.4-.5a9.6 9.6 0 0 0 4.7-2.8 24 24 0 0 0 3.1-4.4l1.6-2.6.2-.5c-1-.2-1.9-1-2.5-1.5-1-.8-1.8-2-2.3-3.2a13 13 0 0 1-.2-8.9c0-.2.3-.2.4 0 .7 2.5.7 5.2 1.8 7.5.4 1 1 1.8 1.8 2.5l1.2 1c.5.2 1 .3 1.4.8l.7.1c-.7-.4-1.4-1-2.2-1.3-.2-.2 0-.4.2-.4l.5.1c1.6.3 3.3.6 4.9 1.4a44.3 44.3 0 0 1 22.5 28c2.4 8.1 3.3 16.6 4.3 25 .5 4 1 8 1.3 12l.1 1.1.7 6.2a186.4 186.4 0 0 1 1.1 19.8l-.2 13.3c0 1.8-2.8 1.8-2.8 0l-.8-14.6-.7-14.3v-1.3l-1.4.3h-.1l-2.7.4h-.2c-.8 0-5 .2-7.3-.3l.6 9.3.4 10.6a68.6 68.6 0 0 0 .8 7.7v.4c.2.7.3 1.3 0 2 .3.7-.1 1.7-1.2 1.6-6.6-.5-13.3-.7-20-.7-11.5 0-23 .4-34.5.7h-3.2c-10.8.4-21.6.7-32.3-.5 0 1.4-2.6 1.3-2.5-.2v-.4c.2-1.6.4-3.4 1-5l-1.4-.1-1.6-.9a12 12 0 0 1-2.8-2.7c-1.6-2.1-2.7-4.6-3.5-7-1-2.7-1.7-5.4-2.5-8l-.8-3c-1-3.7-2-7.4-2.7-11.2l-.3.2c-3.3 1.5-6.1-1.5-6.7-4.6-.3-1.8-.2-3.7-.2-5.5v-.2c0-2.1 0-4.2.2-6.3.3-7 2-13.9 4.5-20.5a89.3 89.3 0 0 1 9-17.9c1.8-2.6 3.9-5 6.4-7a36 36 0 0 1 8.6-5 97.9 97.9 0 0 1 21.3-5.8l.3.7c.5-.3 1.3-.4 1.8-.6 1.6-.5 4.4-.7 5.7-1.9A11 11 0 0 0 94 117Zm-53.7 77.1-.7.6c.3-.1.6 0 .8.2v-.8Zm72.8-47.6a9 9 0 0 0-1 .7c-1.1.9-1.5 2.4-2 3.7l-1.7 4.8-.6 1.5a86.9 86.9 0 0 0 33.2 21.6l3.5 1c0-.1 0-.1 0 0a22.3 22.3 0 0 0 4.5.4h1.8a1062 1062 0 0 0-23.1-20.4l-6.8-5.9-2.2-1.9c-1.9-1.7-3.8-3.4-5.4-5.3l-.2-.2Zm-22.5 13c-.2-.1 0-.4.3-.2 1 1 2.4 1.4 3.7 1.9.3.1.3.6 0 .6-1.7 0-3-1-4-2.2Zm15.7-23.4h.2c1.5-.7 3.6-1 4.9.5.9 1 1 3 0 4-.4.1-1 0-.8-.5.5-1.3.6-3-1-3.4-1.4-.4-3 .4-4.3 1l-.4.1c-2.5 1.2-5 2.5-6.6 4.9 0 0-.1 0 0 0 1.2-3.5 5-5.3 8-6.6Zm-18.5-7.3-.6-.2c-1.6-.6-3.5-1.2-4.5.5a7 7 0 0 0-.8 2.1v.7c.3.3 1.1.4 1.4.5l2 .8 1 .3c.5.2 1 .4 1.4.8 1.2-1.6 3-2.5 4.9-3.3-1.6-.7-3.2-1.6-4.8-2.2Z" fill="#000"/><path fill-rule="evenodd" clip-rule="evenodd" d="M91.8 43c26.7-1.4 44.8 19.7 45.6 28 .5 6 .2 13.7.2 18.9 0 2.7 1.3 10.7-.2 14.6-3.4 8.6-7.2 15.4-17.8 15.4-10.5 0-26.6-5.5-32.1-12.5-1-1.3-13.6-10.8-13.6-18.2C74 73.4 72.8 44 92 43Z" fill="#fff"/><path fill-rule="evenodd" clip-rule="evenodd" d="M73.6 25.9c1.5-.5 2.5.2 3.2 1.2a1 1 0 0 1 .7.1l.1.1.4-.3.9-.3h.1c1.2-.4 2.4-.2 3.1.8.2.1.3.3.4.6l.6.3.4-.2c.9-.2 1.8 0 2.4.5.4.3.6.6.8 1 .2 0 .4 0 .6.2l.5-.2c.6-.2 1.3-.3 2-.2 1.4 0 2.8 1.7 1.8 3.1l-.3.6 1 .6c1.4 1.2 1.6 3 1.3 4.8.8.2 1.4 1 1 1.7-.7 1-1.2 2.1-1.8 3.2a28 28 0 0 0-4.8 2.2 22.2 22.2 0 0 0-3.7 4.2c.3.1.6.1.9-.2 2.4-2.2 5.4-3.8 8.6-5 .2 0 .4-.1.4-.3l4.3-1 1.3-1c.5-.6 1.1-.6 1.6-.2.2-.2.5-.3.7-.3h.2l.1-.2c1.7-.5 3.3-.3 5 .1l.2.1c.8.2 1.2.2 2 0 .9-.2 1.7-.4 2.6-.2.8.3 1.4.8 2 1.4.3.3.5.4.8.4h.4c1.4 0 2.9 0 4 1 .3.5.8 1 1 1.6v.1h.6c1.6-.4 2.9 0 3.9 1.3l.8 1.1.2.2c.4.3 1 .3 1.4.4 1.1.2 2.4.6 3 1.7l.4 1.5 1 1c.2.5.3 1.1.7 1.6.2.3.6.5 1 .7 1 .7 1.9 1.4 2.2 2.6l.2.7.5.2a3 3 0 0 1 1.7 1.3c.3.5.4 1 .4 1.6v.2l.1.2.4.2c.6.4 1 1 1 1.7 0 .3-.1.6-.3.8.2.2.3.4.3.7.2.4.2.9.1 1.4l-.3 1.5-.2.7c.2.2.3.5.2.8 0 .4-.2.8-.5 1A9.5 9.5 0 0 1 138 74l-.2 8.4c0 3 0 6 .2 9 .2 5 .8 10.3-.7 15.2A20.5 20.5 0 0 1 119 121c-2.2 0-4.4-.2-6.5-.7h-.2c-2-.6-4.4-1.5-5.9-3-.7-.8 0-2.4 1.2-2l3.3 1.6a18.7 18.7 0 0 0 9.8 1.3c7.9-1 14-7.6 15.3-15.4.3-2.2.3-4.4.3-6.6V94a130 130 0 0 1 .5-13.7l.1-1.4.7-4.6c-.3 0-2.2-3.2-3.2-5-.4-.3-.7-.7-.8-1.2v-.3a17 17 0 0 0-.8-1l-.2-.1a3.6 3.6 0 0 1-1.6-2l-1.4-1.2-.1-.1c-.6-.2-1.2-.6-1.6-1.1l-.5-.3-1.5-.3c-1-.4-1.7-1.2-2.6-1.5-1-.4-2 .5-3 .3l-.9-.2a9.3 9.3 0 0 1-5 3.1c-.6.5-1.2 1-2 1.2a40.8 40.8 0 0 1-5.7 3.7 2 2 0 0 1-1 .3 8 8 0 0 1-2 .9h-.7l-.6.5c-.5.4-1 .6-1.4.6l-.8.6c-.4.2-.8.3-1.2.2-.6.7-1.4.7-2 .4a3.7 3.7 0 0 1-.8.4c-.7.7-1.7 1.1-2.8 1-.7.5-1.6.7-2.5.7l-.4 2v.7l.3 6.5v.2c0 1.9.5 5.3-2.3 5.3-1 0-2-.8-2.8-1.5h-.2l-.1-.2-1.9-.2c-.7 0-1.5 0-2.2.2a6 6 0 0 0-3.6 2.2l-.3.6c-.8 1.8-.4 4.2.5 5.8 1 2 2.7 3.3 4.8 4h.1c1.5.5 2 1.3 2.8 2.6l2.4 3.1c1.8 2 4.2 3.6 5.2 6 .2.5-.3 1-.8.9-1.8-.5-3-1.8-4.3-3a39 39 0 0 1-2.6-2.8l-.5.2c-.9 0-1.7 0-2.5-.4-.3 0-.7-.1-1-.4l-.6-.7H80a1.5 1.5 0 0 1-1-.5c-.3-.4-.4-1-.3-1.4h-.2c-.5-.2-.9-.6-1.1-1a4 4 0 0 1-1.8-2.3l-.5-.2c-1-.7-1.7-2-1.3-3.3l.2-.3v-.6h-.3c-1-.5-1.7-1-1.9-2.2 0-.3 0-.5.2-.7l-.1-.2a2 2 0 0 1-1-1.7c.1-.6.4-1.1.8-1.6l.1-.1-.2-.1-.4-.2c-.4-.2-.8-.6-1-1l-.1-.1a2.3 2.3 0 0 1 0-2 2 2 0 0 1-1.5-1.8c0-.5 0-.9.2-1.2v-.7a2 2 0 0 1-.6-1c-.1-.7.2-1.4.7-2-.2-.5-.2-1 0-1.6a2.7 2.7 0 0 1 .3-2.3c-.4-.5-.6-1.2-.3-1.8.1-.5.3-.9.6-1.3l-.2-1c0-.6.2-1.1.6-1.6-.2-.7.2-1.7.9-2l1-.4a45.3 45.3 0 0 1 1.4-3.6l-.6.4c-.6.8-1.3 1.4-2 1.8-1.3.8-2.8.3-3.5-1a3 3 0 0 1-2 .7c-1-.1-1.8-.7-2-1.6v-.4c-.5.4-1 .7-1.6.9-.8.2-1.5-.4-1.6-1v-.8c-.4-.3-.7-.6-.8-1-.9.3-1.8 0-2.1-1a6.5 6.5 0 0 1-.1-3.2 4 4 0 0 1-1.6-2.9c0-.8.2-1.6.5-2.3-.8-.3-1.1-1.4-.7-2.2-.6-.3-1-1-1-1.6-.2-.3-.2-.8 0-1.3a4 4 0 0 1 1.4-1.7l-.6-1.5c-.5-.1-1-.5-1-1.1-.1-.8.4-1.4 1-1.6l.3-.7a3.3 3.3 0 0 1 2-4.2c-.3-.7 0-1.3.6-1.8.8-.6 1.7-1 2.5-1.4 0-1 .4-2.1 1.5-2.5l.8-.1a3 3 0 0 1 1-1.2c.8-.5 2.1-.2 2.5.6v.2c.2-.4.3-.8.6-1 .8-.8 1.6-.8 2.3-.5l.5-1c.8-1 2-1.2 2.9-.6.4-.3.8-.6 1.2-.7ZM79 91.2c1.5-.6 3.3-.5 4.8.1h.1c1.3.6 3.4 1.7 3.7 3.2.1.7-.6 1.4-1.4 1-.6-.4-1-1-1.5-1.6a8 8 0 0 0-1.6-1.2 11 11 0 0 0-4-1.3c-.3 0-.2-.2 0-.2Z" fill="#000"/><path fill-rule="evenodd" clip-rule="evenodd" d="M119.3 106.9a7.2 7.2 0 0 1-3-2.3c-.3-.4-.4-.8-.3-1.1a1.6 1.6 0 0 1 1.7-1.3c.3 0 .7.3 1 .6v.1c.4.6 1 1.1 1.7 1.5a4 4 0 0 0 2.2.3c1.4-.1 2.4-.9 3.5-2a31.8 31.8 0 0 0 .7-.6h.4l.4.2.1.5c0 1-.7 2-1.5 2.8-.9.9-2.1 1.5-3.2 1.7-1.3.2-2.6 0-3.7-.4Zm4.3-17c1.3.8 3.3 2.7 1.9 4.7-1.7 1.8-4.1-.3-5.3-1.2-1.1-.7-2.4 1.1-1.3 2 8.6 6.3 12-5.3 5.3-6.5-.7 0-1 .7-.6 1ZM108 82.5c.1-1.9 3-2.3 3.2-.5.2 1.6 0 3.1-.8 4.6-.7 1.4-2.4.7-2.6-.5-.1-1.7.1-2.5.2-3.6Zm21.1-.9c.4-.5 1-.8 1.6-.6 2.1.6 1.5 3.6.8 5-.4.8-1.7 1-2.3.3-1-1.1-1.4-3.4-.2-4.5l.1-.2Zm-18.7-7.1h.3c1-.3 2.3-.4 3 .4.4.4.6 1.2 0 1.7-.9.7-1.9.4-3 .5-.9 0-1.7.2-2.6.4-1.9.6-3.4 1.5-5 2.6-.2.2-.5-.1-.4-.3 1-1.8 2.8-3.3 4.6-4.2 1-.5 2-1 3-1.1Zm16.8-.8h.3c2.7.6 6.3 1.7 7.6 4.4v.6l-.3.1a6.2 6.2 0 0 1-1.6-.6l-.5-.2-1.8-.8c-1.3-.4-2.7-.7-4-.9l-.9-.3-.4-.7c-.1-.4 0-.7.1-1 .2-.3.4-.5.7-.6.2 0 .5-.1.8 0Z" fill="#000"/></svg>