<svg width="200" height="268" fill="none" xmlns="http://www.w3.org/2000/svg"><path fill-rule="evenodd" clip-rule="evenodd" d="M150.4 146c-1.5-5.8-3-8.3-5.7-10.4-2.5-2-6.2-3.5-11.6-4.7-5.7-1-5.8-4-7.2-8.6-.5-1.4-2.5-1.8-3.4-.8a4 4 0 0 0-.4-.3c.2-.7-.8-2.6-.8-3.3.3-6.7-1.9-10-7.4-11.3a62 62 0 0 0-10.5-.1c-5 1.4-10 5.8-9.3 11.2a10 10 0 0 1-5.6 4c-5.5.7-11 1.4-16.5 1.9a45.7 45.7 0 0 0-27.8 15.6c-.6.8-.8 1.8-.3 2.6-.4 2-2.9 6.5-1 7.8-3.1 7.6-10.5 22.3-10.5 26.6 0 17.7 1.8 40.7 19.4 50.5.7.7.8 1.5 1 2.5.9 3.2 3.7 5.5 6.7 5.3 15.1.4 29.8-1.5 44.9-1.6 6.6 0 14.6 1 20.4 1.6 5.8.7 11.6.1 17.2-1.6.5.8 1.4 1.2 2.4 1a29.9 29.9 0 0 0 14.4-8.5c1.3-2.3 6.1-8.7 4.2-11a35 35 0 0 0-1.5-22.1c.5-1.3-.3-2.7 0-4 .3-1 1-1.4 1.3-2.3.5-1.4 0-3.2-.6-4.5-.2-.7.4-1.4.6-2.1.8-3.3-1-3-2.4-5.2l.4-1.6c.2-1-.3-2.5-.8-3.4-.3-.7-1-1-1.6-1 .6-2.2 1.5-4 2.4-6.2 1.5-3.7 3.5-7.3 5.8-10.7 1-1.4-.3-3-1.8-3.2a92 92 0 0 1-14.4-2Z" fill="#fff"/><path fill-rule="evenodd" clip-rule="evenodd" d="M136.2 174.5c-2-.7-4-1.1-6.1-1.3l3.4-.5c.8 0 1.5 0 2.1.6.4.4.6.9.9 1.4l-.3-.2Zm20.9-7c-3.2.1-6.4.9-9.3 2.2-1.2.6-2.2 1.4-2.5 2.7a6 6 0 0 0 0 2c0 .6 0 1.3.5 1.6l.2.2c-1 .4-2 1-3 1.6-.8.5-1.6 1.4-2 2.3l-.1-.3a8.4 8.4 0 0 0-3.2-4.5c.3-.1.5-.4.4-.8-.4-1.7-2-3.2-3.8-3-1.9 0-4 .7-5.7 1.6h-2v.2a42.7 42.7 0 0 1 5.2 1c1.4.4 3 .7 4.2 1.4a7.5 7.5 0 0 1 3.9 7.3c0 .5-.2 1.9-.9 1.7-.5 0-.8-1.2-1-1.7a4.8 4.8 0 0 0-2.5-2.3c-1.3-.6-2.7-1-4-1.4l-2.3-.8c-.8-.3-1.5-.6-2.4-.5-.5.2-.5.8-.3 1 .5.6 1.1.8 1.7 1l2.5.8c1.2.5 2.6.8 3.8 1.4-.1 0-.3.1-.2.3.1 1 .4 2.4.1 3.5-.2 1-1 2-2 1.7.1-.2.2-.4 0-.7-.3-.8-5.7-4.3-6.1-3 .4 0 1.1.7 1.4.9l1.5 1 1.4 1c.4.4.7.7 1.1.8a1 1 0 0 0-.4.6c-.2.7-.6 1.2-1.3 1.5-.7.3-1.4.1-2.2.2-1 .1-1.8.6-2.5 1.2-1.6 1.5-2.3 4-4.4 4.6-1.3.4-2.7.1-4 0-1.4-.2-2.8-.4-4.3-.2-1.3.2-2.6.7-3.9 1.3-1.2.5-2.5 1.1-3.5 2l-.6-2c-.4-1.7-.6-3.3-.7-5 0-1.5 0-3 .2-4.6l.2-2.3.1-.7c1.9-1 3.8-2 5.8-2.8a7.3 7.3 0 0 1 .2 0l.5-.6c2.9-1.9 5.2-4.5 7-7.5.8-1.2 1.5-2.5 2.5-3.6a7 7 0 0 1 3.8-2.3c1.7-.4 3.6-.7 5.4-.8l3.2-.2c.8 0 1.5 0 2.2.3 1 .2 1.6 1 2.2 1.8a55 55 0 0 1 3.3 4.5l.7 1.5.2.6c0 .1 0 .3.2.3-.9 0-.9 1.4 0 1.4 3.4-.2-1.5-6.8-2.2-7.7-1-1.3-2-3-3.6-3.6h-.1l1.2-1.5c.3-.6.8-1.2.9-1.9 0-.4-.4-.6-.7-.3-.4.6-.5 1.3-.8 1.8l-.9 1.8a8 8 0 0 0-2-.3 89 89 0 0 0 5-8l2.3-4.6 1.3-2.6.6-.8.1-.2h.2c.3-.2.4-.6.6-.8.3-.4.7-.5 1.1-.5h3.1a183.1 183.1 0 0 1 12.4.8l5.8.7a182.4 182.4 0 0 1-8.8 18.3Zm-14.5 15.9c-.4.2-.9.4-1.2.7v-1.3c.3.3.7.5 1.2.6Zm18-10.7h-.1a3 3 0 0 0 .6 3.6c.5.5 1.6 1 1.5 1.8 0 .7-.7 1.2-1 1.7-.3.5-.4 1-.2 1.6.3.7 1.1 1 1.4 1.7.4.9-.2 1.9-.6 2.6-.4.7-.9 1.4-1.2 2.2-2.1 1-4 2.8-5.7 4.5-1.8 1.9-3.3 4-6.2 4-.3 0-.5.2-.6.4a59.7 59.7 0 0 1-6.6 0v-1l-.1-2.8v-.8c.5.9 1.4 1.3 2.6 1.2 1.8 0 3.6-.4 5.4-.6l2.8-.5c.7-.1 1.8 0 2.4-.7l-.1-.5c-.5-.3-.9-.1-1.5 0a102.1 102.1 0 0 1-8.6 1.3c-.7.1-1.5.2-2-.3-1.1-1-.5-2.8.2-3.8l2-.6 3.9-.6c2.6-.4 5.3-.6 8-.9.6 0 .6-1 0-1-3.9.3-7.7.7-11.5 1.4l-2.8.6-1.4.3c-1 0-1.1-.8-.6-1.4l.2-.3c.9-1 2-1.7 3-2.4 1.3-.2 2.6-.6 3.8-.9l9.2-2c.6-.2.3-1-.3-1l-7 1.6-3.3.8-2.3.6h-1.2c-1-.3-1.1-1.7-.6-2.5.5-1 1.5-1.5 2.4-2 1.6-1 3.2-1.6 4.9-2.4.2 0 .5 0 .8-.2 1.7-.3 3.6-.5 5.2-1.2.4-.2.2-1-.3-.9-1.2 0-2.5.5-3.7.7l-3.9.9-1 .2v-.5c-.2-.5-.2-1.1-.1-1.7.1-1.2 1.2-1.8 2.2-2.3a24.3 24.3 0 0 1 9.3-2c.7-.1 1.3-.2 1.6.5.6 1 .9 2.4 1 3.6Zm-3.3 39c-.5-1.7-.4-3.6-.7-5.3l-.7-2.8c-.2-.7-.6-1.5-.6-2.3.8.4 1.3 1.3 1.7 2 .5.8 1 1.7 1.2 2.6.6 1.8 1.1 4 .3 5.9-.2.5-1 .6-1.2 0Zm-15.8-23.2 1.3-.2c-.5.4-1 1-1.2 1.6l-.1-1.4Zm-4.1 36.6c-.8-.5-1.4-1.3-2-2-.6-.6.4-1.5 1-.9.5.6 1 1.3 1.7 1.7.3.2.4.6.2 1-.2.3-.6.4-1 .2Zm-4.3-20.3c1.4-.6 2.8-1.3 4.2-1.7.9-.3 1.3 1 .4 1.3-1.3.4-2.6 1-3.9 1.6-.8.3-1.5-.9-.7-1.2Zm-14.7-.4c-.3-.9 1-1.2 1.4-.4l1.2 2.8c.3.8-1 1.2-1.3.4l-1.3-2.8ZM104 221c-.3.3-.6.5-1 .3-.3-.2-.5-.7-.3-1l2.2-2.5c.6-.7 1.6.3 1 1a22 22 0 0 0-2 2.2Zm-2.1-93.6 1.7 1.6c.7.6-.3 1.6-1 1l-1.4-1.4c-.3-.2-.5-.6-.3-1 .2-.2.7-.4 1-.2Zm21 22.5c-.3.8-.6 1.5-.7 2.3 0 1-1.4 1-1.4 0s.5-2 1-3c.4-.8 1.6 0 1.2.7Zm7.8-18c.7-.5 1.4.7.7 1.2l-1.8 1.2c-.8.5-1.5-.7-.7-1.2l1.8-1.2Zm-33.5 31.6c-.2.9-1.5.5-1.4-.4.2-1.4.4-2.7.8-4 .3-.9 1.6-.5 1.4.3-.4 1.4-.6 2.7-.8 4Zm-5 16c-.9 0-.9-1.4 0-1.4s1.7.2 2.4.4c1 .2.6 1.6-.3 1.4-.7-.2-1.4-.4-2-.4Zm-1.8 32.3-1 .4a1233.7 1233.7 0 0 0-5.7 2.7l-7.9 3.5-8 3.7-3.8 1.7c-1 .5-2.4 1.3-3.6 1.4.4-.6 1.1-.9 1.7-1.2l1.9-1a236.9 236.9 0 0 1 11.5-5.8l7.9-4 3.7-1.7 2-1c.3 0 .6-.2.9-.4.4-.1.7 0 1.1-.2.7-.1 1 .7.4 1l-1 .9ZM81.1 226c-.2-.3.1-.8.4-.9.4 0 .8.2.9.5.4 1 1 1.8 1.6 2.5.7.7-.3 1.7-1 1-.8-.9-1.5-2-2-3.1Zm-7-22.4c-.6-.7.4-1.7 1-1l1.9 1.8c.6.6-.4 1.6-1 1l-1.8-1.8Zm-18.6-3c-1.3.4-2.8.7-3.7 1.8 0 .1-.1 0-.1 0 1.1-2.4 4.4-3.2 6.7-4 1.6-.6 3.2-1.1 4.9-1.5-.2-2 .3-4 .4-5.8a122.6 122.6 0 0 0 .4-12.2c0-2-.3-4-.4-6.1 0-.2.2-.2.3 0a48.7 48.7 0 0 1 1.2 18.5l-.3 3c0 .7-.1 1.5-.3 2.2l3-.7 9.6-2.1 4.6-1.3c1.5-.4 3-.8 4.5-1 .6 0 .6.7.3 1-1.2.8-2.8 1.4-4.3 1.8-1.4.5-2.8.9-4.3 1.2-3 .8-6 1.4-9 2l-9.2 2-4.3 1.2Zm-7.2-37.4c-.8.4-1.5-.8-.7-1.2 1-.6 2.1-1 3.2-1.5.9-.3 1.2 1 .4 1.3-1 .4-2 .8-2.9 1.4Zm-2.8 52c-.8.4-1.5-.8-.7-1.3 1-.6 2.3-1 3.4-1.6.8-.4 1.5.8.7 1.2l-3.4 1.6Zm-1.3-29.6c.8.8 1.8 1.1 2.7 1.5.9.3.5 1.7-.3 1.3-1.2-.4-2.4-.9-3.4-1.8-.6-.6.4-1.6 1-1Zm8.4-40c.8.3.5 1.7-.4 1.3l-2.8-1c-.8-.3-.5-1.6.4-1.3l2.8 1Zm14.8-16c.9 0 1.3 1.3.4 1.4-1.1.2-2.2.4-3.3.8-.8.4-1.2-1-.3-1.3 1-.4 2-.6 3.2-.8Zm4.9 38.8c-.8-.4-.1-1.6.7-1.2.8.4 1.7.8 2.6 1 1 .1.6 1.5-.3 1.3-1-.2-2-.6-3-1Zm4.6-21.8c.9-.2 1.2 1.1.4 1.3-1.6.5-3.1.7-4.7 1-.9.3-1.2-1-.4-1.3l4.7-1Zm19.6-6.8c.9.1.5 1.5-.4 1.3-1-.2-1.9-.2-2.9-.2-.9 0-.9-1.4 0-1.4 1.1 0 2.2 0 3.3.3Zm63.8 7.3-6.9-.6h-.3c-.8-1.2-1.3-2.3-1.8-3.5l-1.6-3.5c-.8-1.2-2-2.1-3.1-3l-2 1.7c-.7.6-1.7-.4-1-1l1.7-1.5-2.1-1.2-8.1-4.2-4-1.6-2-1c0-.5-.1-1-.5-1.4l-.9-.5c.2 0 .2 0 0 0 0-.3-.5-1-.6-1.2-.5-1-.6-2-1.3-3a3.5 3.5 0 0 0-3.8-1.3c-.2-1.5-.2-3.1-.8-4.5-.7 1-.7 2.2-.8 3.3 0 1.1 0 2.3.2 3.3a5.3 5.3 0 0 1-1.7 1c-1 .3-2 .4-3 .5-2.7 0-5.4-.2-8-.6-2.7-.5-6.7-1.2-9-2.5-1.6-.9-3-2-4.4-3 .5-1.6.6-3.4.1-4.8 0-.2-.3-.2-.4 0-.3 1.3-.4 2.7-.8 4l-.5-.2c-.3-.2-.7 0-1 .3-3 4.7-7.7 5-12.8 5.8-5.5 1-11 2-16.3 3.8a36 36 0 0 0-16.2 10.8c.7 0 1.4.2 2.2.4.8.3.5 1.7-.4 1.4-1-.3-1.9-.4-2.8-.5a84.5 84.5 0 0 0-13 35.5l1.7-1c.8-.4 1.5.9.7 1.3-1 .4-1.8 1-2.6 1.5a92.2 92.2 0 0 0 3.6 36.7c1.3 4 3 8 5.6 11.4A20.3 20.3 0 0 0 48 230c1 .6 2.5.8 3.4 1.6.3.2.6.6.8 1-.2.7-.2 1.4 0 2.1l.5.5v.2-.2H61l-.7-2c-.3-.8 1.1-1.2 1.4-.3l.7 2.2 8.6-.3 18.2-.4c9.4-.2 19-.6 28.4-.2l1-2c.4-.9 1.6-.2 1.2.6l-.7 1.4 5.7.4c3.3.3 6.5.9 9.8 1.2 3.3.4 6.5.3 9.8-.2.6-.1.9-.5 1-1l.5-.5.7-.3 1.4-.3 1.7-.2a12.6 12.6 0 0 0 3.6-1l1.8-1.1a22.6 22.6 0 0 0 4.5-5l2-3.9c.2-.3.5-.7.6-1.1-1.2-.4-2.5-.7-3.9-.7-.9 0-.9-1.4 0-1.4 1.6 0 3 .4 4.5.8l.2-.6.4-1.2.3-.6.4-2a26.3 26.3 0 0 0 1.1-5.3 40.5 40.5 0 0 0 .3-8.5c0-.8-.1-1.5-.3-2.2l-.5-3.3-.6-2.1a41.4 41.4 0 0 0-2-4.7l-.1.1-.1-.2-.3-.2c.7-.8 1.1-1.8 1.6-2.7.4-.7.7-1.4.8-2.2.1-.7 0-1.4-.5-2-.5-.7-1.4-1-.9-1.9.6-1 1.5-2 .6-3.2-.4-.6-1.1-1-1.7-1.5-.6-.6-.9-1.4-.8-2.3.6-1.6.2-3.2-.3-4.7-.3-.8-1-1-1.6-1.1 3-6 5.9-11.9 8.4-18l.2-.6c.2-.3-.1-.7-.4-.8-2.2-.5-4.5-.6-6.7-.8Z" fill="#000"/><path fill-rule="evenodd" clip-rule="evenodd" d="M135 74c-.4-5.3.2-11-1.8-16-3.7-8.5-13.8-11.3-21.7-14.6-3.2-.9-13.8-1-17.5-2.3-8.4-2.7-10.4-6-17-.8a7.2 7.2 0 0 0-2.4 3.3c0 .5 0 1.1.4 1.5-2.9 3-4 7.4-2.6 11.3C77.2 66.6 77 72 75.4 83c-2 10.2 2.7 14 10.3 19.5-.3.6-.3 1.4 0 2a33.5 33.5 0 0 0 40 12c6-2.6 8.5-8.8 10-14.4 1.7-6.2 2.3-12.8.9-19.2-.6-2.9-1.4-5.8-1.6-8.8Z" fill="#fff"/><path fill-rule="evenodd" clip-rule="evenodd" d="M83.7 14.5c1.1-.1 2 .5 2.3 1.5l.5 1c2.7-1.4 6.5-1 8.2 1.7 1.2 1.9.5 4.1 0 6.2l-.3 1.3c.6.4 1 1 1 1.7l-.1 2a9.7 9.7 0 0 0 1.8-2.5c1.5-2.3 4.8-.3 3.6 2l-.8 1.4-.8 2c.6.2 1 .7 1.1 1.6.1 2-1 3.6-2.6 4.7-.5.3-1 .3-1.5.2l-.2.4c.7.5 1.3 1.1 1.8 1.8a32 32 0 0 1 4.6-.4c2-.9 4.2-.9 6.3-.5 1.3.2 2.5.6 3.8 1 1.4.3 2.8.3 4.2.5 1.7.3 3.2 1.1 4.2 2.4 1 0 2.2.4 3 1l6.5 4.1c.8.6 1.1 1.4 1 2.3l-.1.5.2.2c.6 1 1.3 1.9 1.7 3a31 31 0 0 1 4.2 8.6l.3 1.3c0 .7 0 1.2-.2 1.8l-.3 2.4c0 .5-.5.8-1 .8a102.6 102.6 0 0 1 .9 9.7c.5.7 1.5 1.3 2.3 1.5 1 .3 2.2 0 3.1-.4.7-.2 1.2.6.9 1.1-1 1.7-3 1.7-4.6 1-.6-.4-1.2-.8-1.6-1.4V84c.4 6 1 12 0 17.8-2 10-10.3 17.7-20.5 18.3-5.4.3-9.8-1.3-12-2.2-2.3-.8-1.4-2.6.1-2.1 2.7.9 7.6 2.2 12 1.6 10.2-1.3 18.9-6.4 18-28.5l-.6-9.3c0-3.1 0-6.2-.2-9.2v-1l-.2-3.7-.4-1.4a21 21 0 0 0-1.4-3.7 1 1 0 0 1-.4.2c-1.3.2-2.4.2-3.5-.3l-1.5-1-.4-.5c-.6 0-1.1-.1-1.5-.5-.3-.5-.4-1-.3-1.4a6.7 6.7 0 0 1-2.4 3 9.8 9.8 0 0 1-5.5 1.4 38.4 38.4 0 0 1-8-1l-.2.1a6 6 0 0 1-6.5 1.2c-1.4-.6-2.5-1.5-3.4-2.5l-.1 1.6v.2c-.1 1-.3 2.1-1.1 2.8-1.2 1.2-3 .7-4.4 0l1.1 4 .1.3c.3.9.6 1.8.7 2.8.1 1.8-1.1 3.7-3.2 3-1-.3-2-1.2-2.7-2l-.6-.4c1.4 4.4 2.3 9 2.4 13.6 0 .3-.2.5-.4.5l-1.8-.3c-1-.2-1.9-.5-2.7-1 .2.5.3 1.2.2 1.8 0 .2-.2.2-.3 0-.4-2.2-3-3.9-5.3-3.4a6 6 0 0 0-4.6 4.8c-.5 2.6.4 5.5 2 7.4a5 5 0 0 0 3 1.9l1.7-.1.6-.3c.3-.1.7-.1 1-.3.7-.3 1.3.4 1 1-.3.6-.6 1-1 1.4.4.4.7 1.1.8 1.3a31.1 31.1 0 0 0 4.8 5l.3.3a9 9 0 0 1 2.3 2.3c.5.8-.1 1.8-1 1.8-3 0-5-2.5-6.5-4.7l-.6-1-.2.3.2.4c.5 1.3-1.6 2.2-2.2 1-.5-1-1-1.7-1.6-2.5-.3 0-.6-.3-.8-.5l-1.4-2-.8-.7-.2.2c-.3.7-.7 1.3-1.2 2l-.1.1c-1 1.2-2.2 2.4-3.7 2.7-.4 0-.9-.5-.5-.9 1-1 2.3-1.6 3.3-2.6.5-.5 1-1.1 1.3-1.7l.1-.2.2-.3-1.3-.9c-1.2 1-2.8 1.5-4.2 2.4-1.3.9-2.6-1-1.6-1.9 1-1 2-2.4 3-3.5a7 7 0 0 1-.8-2.8l-.1-.8c-.7 0-1.4-.3-2-.7l-.2-.1-2.1.3c-1.7 0-2.4-2-1.3-3.2 1-1.2 2.9-1.4 4.4-.8l.1-.1v-1.1a4 4 0 0 1-.5-3l.1-.5a3 3 0 0 1-.2-1c-.8-1-.7-2.3 0-3.1v-.5c-.7-.6-1.2-1.5-1.1-2.5 0-.6.3-1.1.6-1.5V73a9.1 9.1 0 0 1 0-5.3c-.2-.3-.2-.5-.2-.9 0-1.3 1.2-2.5 2.5-2.5h.5l.3-1-.2-.1c-.8.4-1.8.8-2.7 1-.7.2-1.5-.6-1-1.3l.7-.8h-1c-.7.1-1.4-.3-1.8-.9l-1.6 1.5c-1.3 1.3-3.3.3-3.5-1.3a3 3 0 0 1-1-.5c-2 .8-4.3 1.3-6.5 1.4-1.7 0-2.6-1.8-1.9-3.1.5-1 1.2-1.7 2-2.4-1.2.3-2.4.6-3.6.7-.6.1-1.5-.4-1.8-1-1-2.3-.9-4.6.2-6.8l.2-.3.4-.8c-1.4-1.5-1.6-3.6-.8-5.5-.3-.4-.4-1-.2-1.6.6-1.5 1.4-2.9 2.5-4.1l-.3-.6c-.6-1.9.1-4 1.5-5.3.9-.8 1.9-1.3 3-1.6.4-.8 1-1.5 1.7-2.1v-.2c1.1-2 3-3 5.1-3.3a2 2 0 0 1 1.4-1.7c.2-.7.5-1.4 1-2 .6-.9 1.8-1.3 2.8-.7l1.7 1.1.8-.2h1.8l2.2-1a5.8 5.8 0 0 1 3.3-1.4 15.8 15.8 0 0 1 5.2-.8v-1.1c0-1 .8-2 1.8-2Zm-1.2 84.7H82l.2.4.4.3v-.7Zm-9-2.7-.1.2v.1h.7-.1a4 4 0 0 1-.5-.3Zm4.9-9.8c1.5.1 2.8.4 4.3 1 1.3.7 3.4 1.8 3.2 3.5 0 .4-.4 1-.9.9-1.5-.1-2.3-1.6-3.3-2.5a17 17 0 0 0-3.4-2.5c-.2 0-.1-.4 0-.4Zm-7-21.5c-.4 0-.3.4-.1 0Zm20-24c-3.5 0-7 2.1-9.7 4.2-2.3 1.8-4.3 4-6 6.3l-1.2 3.6-.5 2.4v.2l-.4.9c.3.3.7.5 1.2.6l.4.2c.3-.6.6-1.2.8-2a40 40 0 0 1 10.1-11.3c2.3-1.7 4.8-3 7.6-3.9-.7-.5-1.5-1-2.3-1.3Z" fill="#000"/><path fill-rule="evenodd" clip-rule="evenodd" d="M122.5 102.7c.2-.5.8-1 1.4-.9 2.6.3 2.6 3.4 1.6 5.2a4.7 4.7 0 0 1-4.5 2.4 4.8 4.8 0 0 1-4.2-3c-.5-1.2-.7-3.3.5-4.1h.1c.6.7.6 1.7 1.2 2.5a3 3 0 0 0 2.1 1.4c.7 0 1.3-.2 1.6-.8a1 1 0 0 0 0-.7v-.2c-.1-.6-.2-1.2.2-1.8Zm.6-13.5c1.4.8 3.4 2.7 2 4.7-1.7 1.7-4.1-.3-5.3-1.2-1.1-.7-2.4 1.1-1.3 2 8.6 6.3 12-5.3 5.3-6.4-.7-.1-1 .7-.7 1Zm-14-5.5c.9-1.2 2.7-1 3.2.4.2.8-.1 1.5-.1 2.3 0 .6 0 1.4-.2 2a3.4 3.4 0 0 1-3.4 2.5c-1.5 0-2.9-1-3.5-2.4a5.5 5.5 0 0 1 0-4.2c0-.1 0-.1 0 0 .7.5 1 1.1 1.5 1.8l.4.7c.4.5.8 1.2 1.5 1.1.2 0 .2 0 .3-.2l.1-.5v-.4c0-1-.3-2.2.2-3Zm20.7.8c-.2-1.5 2-1.9 2.7-.7.4.6.5 1.3.6 2v.4a4 4 0 0 1-.1 2.2c-.5 1-1.6 1.6-2.8 1.5-1.1 0-2.2-.7-2.7-1.7-.5-.9-1-2.6-.4-3.5h.2c.5.4.6 1.3 1 2 .3.6.8 1.3 1.6 1.4.7 0 1-.3.8-1-.2-1-.8-1.6-1-2.6Zm-20-10 .3-.2c1.2-.4 3-1 4 0 .5.7.6 1.6.2 2.3-.5 1-1.5 1-2.4 1a20.3 20.3 0 0 0-6.2 2.5c-1 .7-2 1.7-3 2l-.2-.1c-.2-1.2.5-2.2 1.1-3.1a12.7 12.7 0 0 1 6.1-4.4Zm22.3 4v-.1c.8-.1 1.5 0 2 .5.5.4.7 1 .5 1.6-.2.6-.7 1.1-1.3 1.2a20.4 20.4 0 0 1-9.2-.5l-.5-.1c-.7-.2-1.6-.5-2.2-1-.2-.2 0-.5.2-.6 1-.4 2.3-.2 3.3-.2a49 49 0 0 0 3.7-.3c1.2-.1 2.3-.4 3.5-.6Z" fill="#000"/></svg>