<svg width="50" height="50" fill="none" xmlns="http://www.w3.org/2000/svg"><g clip-path="url(#a)"><rect x="1" y="1" width="48" height="48" rx="16" fill="#F5F4F3"/><path fill-rule="evenodd" clip-rule="evenodd" d="M8 71.4h5.5c7.7 0 15.4 0 23.1-.3 2.2 0 2.7 0 4.9-.2 1.3 0 5.1 0 5-1.8-.2-3.2-1-6.5-1.2-9.7-.5-6-1-12.3-3.4-18a7.3 7.3 0 0 0-3-3c-1.1-.8-1.4-1.8-2.5-2.7-.3-.2-1.6-.3-2.3-.8-1-.8-1.6-2-2-2.3-.3-.1-.3-1.2-.8-1.6-.8-.5-3.3-.8-4.2-1-.8 0-2.3.2-3.1.5-1.4.5-1.9 1.5-2.5 2.8-7.8 2.4-15 6.4-17.1 14.6-2 7-2 14.3-1.3 21.4.2.5 0 1.3.5 1.6-1.5.1 4.1.4 4.3.5Z" fill="#fff"/><path fill-rule="evenodd" clip-rule="evenodd" d="m43.4 64.6-.4-.2c-.3 0-.3-.4 0-.4l.7.2c.2.1 0 .5-.3.4ZM43 52l.5.1v.3H43a.2.2 0 0 1-.3-.2c0-.1.1-.2.3-.2Zm-2.2 5c0 .3-.5.2-.4-.1v-1.3c0-.2.4-.4.4 0V57Zm-.5-16.1-1-.1c-.3 0-.3-.5 0-.5l1 .1c.4.1.3.5 0 .5ZM39 51.8c-.2 0-.3-.2-.5-.3-.3-.1 0-.5.2-.4l.6.3c.2.1 0 .5-.3.4Zm0 8.8c-.3.4-.6.6-1 .7-.3.1-.4-.3-.2-.4.3 0 .6-.2.8-.5.1-.2.5 0 .4.2Zm-1.6-15.8-.3-.1c-.3 0-.3-.5 0-.5s.6.2.7.4c.1.3-.3.5-.4.2Zm-2.9 3c0 .2-.2.2-.3 0h-.1v-.2c-.2 0-.2-.2 0-.3h.3v.2h.1c.1.2.1.3 0 .4Zm-.2 6.7a1 1 0 0 1-.9 0v-.3c0-.1.1-.1.2 0h.8v.3Zm-.8 4.7-.3.2-.2-.2V59l.3-.2c.1 0 .2 0 .2.2v.2Zm-1.2 7.5h-1c-.3 0-.3-.4 0-.4h1c.3 0 .3.4 0 .4ZM31 37.9l-.7.4c-.2.2-.5-.2-.2-.4.2 0 .5-.1.6-.3.2-.2.6.1.3.3Zm-.5 5.2-.5-.2c-.3 0-.3-.4 0-.4s.5 0 .7.2c.3.1 0 .5-.2.4Zm-2.7 20.7-.3-.1c-.3 0-.3-.5 0-.5s.5.2.7.4c.1.3-.3.5-.4.2Zm-1-9.7v-.3l.3-.3h.3v.3a799 799 0 0 1-.6.3Zm-1 15.2-1-.2c-.3-.1-.2-.5.1-.5l.8.2c.3 0 .3.5 0 .5Zm-1.5-9.6c-.3 0-.6-.2-.8-.4-.2-.2.1-.5.3-.3l.5.2c.3 0 .3.5 0 .5Zm.9-12.4.1.4c.2.2-.1.5-.3.3a1 1 0 0 1-.3-.7c0-.2.5-.2.5 0Zm-3.5-9.7c0-.2-.2-.4-.4-.5-.2-.2 0-.6.3-.4l.5.6c.2.3-.2.5-.4.3Zm-.5 4.6h-.5c-.2 0-.3-.2-.3-.3 0-.1.1-.2.3-.2h.5c.2.1.2.5 0 .5Zm-1.5 7.2H19c-.3 0-.3-.4 0-.4h.5c.3 0 .3.4 0 .4ZM19 69.3c-.1 0-.3 0-.4.2-.2.2-.5-.1-.3-.3.1-.2.3-.2.5-.3h.3v.4Zm-1-5.7h-.4c-.2 0-.2-.5 0-.5.3 0 .5 0 .7.2v.3H18Zm-.4-7.6.1-.4c0-.3.5-.3.5 0 0 .2 0 .4-.2.6h-.3s-.1-.1 0-.2Zm-1.3-10.6-.7.4c-.2.2-.5-.2-.2-.4l.8-.4c.3-.1.4.3.1.4ZM14.8 38l-.5.1c-.3.2-.5-.2-.3-.4l.8-.2c.3 0 .3.5 0 .5ZM14.1 58H14a.2.2 0 0 1-.3-.3l.2-.2h.3l.2.3c0 .1-.1.2-.3.2Zm-1-15.5c-.3.1-.5-.3-.2-.4l1-.3c.3 0 .4.3.1.4l-1 .3ZM12 51c-.2.3-.6.1-.5-.1V50c0-.3.5-.3.5 0v.9ZM9 61l-.3.2a.2.2 0 0 1-.2-.2c0-.2.2-.4.4-.4l.2.2c0 .1 0 .2-.2.2ZM7.4 48.2l-.7.4c-.2.2-.5-.2-.3-.3.2-.3.5-.4.9-.5.2 0 .4.3 0 .4Zm-1 8.8h-.8c-.3 0-.3-.5 0-.5l.7.1c0 .1.1.3 0 .4Zm-.6 10.5c-.2 0-.3 0-.3-.2l.2-.2c0-.1.1-.2.3-.2l.2.2c0 .2-.2.4-.4.4Zm41 1.7-.4-.7v-.2l-.2.1H45.4v-.3l.9-.1h.1a30 30 0 0 0-.6-8.8c-.1-.7-.3-1.4-.2-2.2 0-.7.3-1.4.1-2.1l-.3-.9a2 2 0 0 1-.1-1c.1-.6.3-1.3 0-2l-.4-.8-.1-1.1-.1-2.3c0-.4-.1-.7-.3-1l-.4-1-.1-1-.3-1a9.7 9.7 0 0 0-2-3.4c-1-1-2.1-1.8-3.3-2.6l-2-1.1-.1.1-.7.4c-.2.2-.5-.2-.3-.4l.8-.4-1-.4c-.2-.1-.6 0-.9-.3l-.3-.7-.2-.8-.4-.5a1 1 0 0 0-.3-.6c-.6-.3-1.2 0-1.4.5h-.6a17.2 17.2 0 0 1-3.3 0l-3.9-.9c-.3-.5-1-.4-1.4-.2-.2 0-.4.2-.5.3a1 1 0 0 0-.2.3c-.2.2-.3.6-.6.6h-.5l-.6.3c-1.6.6-3.3 1.4-5 1.7a3 3 0 0 0-1.2.3l-.7.7c-.3.2-.5.4-.8.4-.4 0-.7.2-1 .4l-.6.9c-.2.3-.5.4-.8.6-.7.4-1.4.8-2 1.4-1.1 1.2-1.8 2.7-2.6 4.2-.7 1.7-1.5 3.3-2 5-.5 1.7-.8 3.5-1 5.2 0 1.9 0 3.8-.2 5.6l-.2 2.8v2.7a15.4 15.4 0 0 0 1.4 6.5c.2.3.8.3 1 0V71h1.4l2.3.2 4.8.3h.4c-1.1-3.5-1-7.2-1.1-10.8 0-.3.4-.3.4 0 .2 3.6 0 7.4 1.2 10.8l1.3.1 1.1.1 1.3-.2h2.1l2.4.2a86.9 86.9 0 0 0 11.9-.2l2.3-.3c.8-.1 1.5.1 2.3.2l2.3-.2.8-.1a103 103 0 0 1-.7-6.7c0-.3.4-.3.4 0l.7 6.6 4-.5c.4 0 .8-.2 1-.5.2-.3.2-.6.1-.9Z" fill="#000"/><path fill-rule="evenodd" clip-rule="evenodd" d="M40 19.4a15 15 0 0 0-3.6-7.5c-.3-.3-.5-.7-.8-.7-.4-.7-1-1.2-1.5-1.8-1.2-1.1-2.3-2.4-3.8-3.1-6.8-2.8-13.4 5.2-14.8 11.2-1.4 4.9 0 11.6 6.1 11.8.9 1 2 1.9 3.3 2.6 1.6 1 3.4 1.4 5.3.9 2 .5 3.9-1.1 5-2.5 1-1.1 1.6-2.4 2.4-3.5 1 0 1.8-.9 2-1.9.9-1.6.8-3.6.5-5.5Z" fill="#fff"/><path fill-rule="evenodd" clip-rule="evenodd" d="M25.1 5.3a8 8 0 0 1 3.8.1 13 13 0 0 1 6.2 4.1c1.6 1.8 3 3.9 4 6.1v.1c.7 1.6 1.3 3.2 1.3 5 0 1.5-.1 3-.6 4.4-.4 1.3-1.2 2.6-2.6 2.9-.8 2-2.3 3.7-4.3 4.6-1.2.6-2.5.9-3.8.7a7.3 7.3 0 0 1-3.7-1.6 8 8 0 0 0 4.3 1c2.4-.2 4.6-1.5 5.9-3.5l.8-1.6v-.1c0-.2 0-.4.2-.5a7.5 7.5 0 0 0 .4-2v-2c-.1-1-.3-2-.7-3-.3-.9-1-1.7-1.6-2.5-1.6-1.5-3.5-2.6-5-4.2v-.1l-.6.5-.8.9a60.7 60.7 0 0 0-5 5.5 25.9 25.9 0 0 0-3.2 5.4v.2l-.4 1 .6.7a7.3 7.3 0 0 0 1.4 1.5c.4.3.7.4.8.9l-.3.4c-.5.1-.9-.3-1.2-.6a5 5 0 0 1-.5-.5h-.4a5 5 0 0 1-.7-.1c-1.8-.5-3.2-2-3.9-3.7A13 13 0 0 1 15 18c.7-4.4 3.1-8.4 6.8-11 1-.7 2.1-1.4 3.3-1.7Zm2 .6A9 9 0 0 0 21 8.5c-3.1 2.8-5 6.8-5.5 10.9-.2 2.2 0 4.5 1.1 6.5.5.7 1 1.4 1.7 2l2.2 1-.1-.2-.5-.8c-.5-.7-.4-1.5-.1-2.3a30.3 30.3 0 0 1 6.1-9.4l3-3.2a151.7 151.7 0 0 0 2.4-2.4l.8-.8c.3-.1.5.2.4.4l-.8 1a79.8 79.8 0 0 1-1.7 1.8l.8-.1a11.8 11.8 0 0 0 2.1-.6c.4-.1.7-.4 1-.4.3 0 .4.4.3.6-.3.3-.7.4-1 .5a8 8 0 0 1-3 .3c1.2.6 2.2 1.4 3.2 2.2l.2.2c1 .7 2 1.6 2.7 2.6.7 1 1 2.1 1.3 3.3l.2 1.7c.2.5.2 1 .1 1.7v.2c0 .4.2 1.1-.2 1.4h.2a3.4 3.4 0 0 0 .8-1c.3-.7.6-1.3.7-2a11.4 11.4 0 0 0 .2-4.5 21.7 21.7 0 0 0-6-10.2c-1.8-1.6-4-2.8-6.4-3Zm-3.3 6.5s.2 0 .1.1l-.8 1a164.9 164.9 0 0 0-2.6 3.3l-.2.2a27.2 27.2 0 0 0-2 3.1l-.4 1.2c-.2-.4 0-.8.1-1.2l.6-1.2c.4-.8 1-1.5 1.5-2.3a42 42 0 0 1 2.6-3.1v-.2l1-1Zm-1.4-1.2c.1 0 .2.1.1.2l-1.7 2-1.6 1.8a21.4 21.4 0 0 0-2.6 4.2c.4-1.6 1.3-3 2.2-4.4 1-1.4 2.2-2.8 3.6-3.8Z" fill="#000"/><path fill-rule="evenodd" clip-rule="evenodd" d="M32.8 29a3 3 0 0 1-1-.3c-.3 0-.5-.2-.7-.4l-.2-.2.2-.1h.3a15.6 15.6 0 0 1 .7 0h.4c.3 0 .7 0 1 .3v.4c-.2.2-.4.3-.7.3Zm2-3c-.2.2-.4.3-.8.3-.7 0-1.5-.3-2.1-.7a.6.6 0 0 1-.3-.4V25l-.2.3a7.2 7.2 0 0 0-1 1.8c-.1.5-.2.9-.5 1.1l-.2.1h-.1c-.4-.8.1-1.6.5-2.2.3-.5 1-1.2 1.5-1.3h1a5.6 5.6 0 0 0 1.4.5V25a5 5 0 0 0-.2-.5l-.7-1.2-.1-.2c-.2-.3-.5-.6-.5-1l.7.4.7.7c.5.4.9 1 1 1.7.1.3 0 .7-.1 1Zm-7-3.6c0-.3.3-1.2.8-1.2.3 0 .5.6.5 1.2 0 .3 0 1.1-.5 1.1s-.7-.7-.7-1Zm7.7 0v-.1c0-.4-.2-1.2-.8-1.2-.3 0-.5.6-.5 1.1 0 .4 0 1.2.5 1.2s.8-.7.8-1Zm-6-2.4a5 5 0 0 0-.7.1 11.8 11.8 0 0 0-2.5.9l-.6.2c.5-.7 1.3-1.2 2-1.5l1.3-.5h.2c.4-.2.8-.3 1.1 0 .1 0 .2.1.2.3v.4l-.4.2-.3-.1h-.2Zm5.5 0a3 3 0 0 0-1 0h-.8l-.1-.4v-.2l.2-.3c.3-.2.8-.2 1.1-.1.4 0 .7.1 1 .3l.7.6.3.8c-.3-.3-1-.5-1.4-.6Z" fill="#000"/><path fill-rule="evenodd" clip-rule="evenodd" d="M27.5 29.4c.5-1 1.5-1.8 2.6-2.1.9-.2 1.7-.2 2.6-.2.5 0 1 .1 1.4.3.3.1.6.4.8.7a4.1 4.1 0 0 1 .7 1.4c-.1.4-.2.7-.5.9-.3.2-.7.3-1 .3H34c-.6-.4-1-1.1-1.7-1-.6 0-1 .8-1.4 1.3a5 5 0 0 1-3.4-.9v-.7Zm8.9-.8-.4-.8a4.4 4.4 0 0 0-2-1.8c-2-.9-4.7-.2-6.4 1.2a4 4 0 0 0-1.3 2h-.1c-1.2-.7-2.4-1.4-3.4-2.5a6.6 6.6 0 0 1-1.4-2.6h-.2v.1c-.2 1.2-.4 2.5-.2 3.6 0 .8.4 1.3.8 1.8l1.6 1.7 1 1 1.6.8a20.3 20.3 0 0 0 5 1.3c1 .1 2 .2 2.8-.1.7-.3 1.3-.8 1.7-1.4.5-.6.8-1.3 1-2 .2-.8 0-2.2-.1-2.3Z" fill="#000"/><path fill-rule="evenodd" clip-rule="evenodd" d="M35.6 19.5c1.4 0 2.1.2 2.4.3h.3c.4.2.5.6.3.9l-.1 1.7c-.2 2.3-1.2 2.7-1.9 2.8h-1c-.5 0-1-.2-1.6-.5a3 3 0 0 1-1.3-1.8v-1.2l-.7-.1h-.7l-.4.2v.2l-.1 1c-.1.5-.3 1-.7 1.4a2 2 0 0 1-.4.5c-.7.5-1.6.7-2.5.6a3.6 3.6 0 0 1-2.9-2v-.1c-.2-.4-.3-1-.8-1l-.1-.1c-.3 0-.5-.1-.6-.3l-.1-.4a52.3 52.3 0 0 1-5 .3s-.7.3-1 0c0 0-.1-.2 0-.4.1-.4.8-.5 1-.6h5.1c.3-.2.6-.2 1-.2.2-.2.6-.4.9-.4l.1-.1a6.8 6.8 0 0 1 3.4-.3l.7.1c.5 0 .9.2 1.3.3h.1l1.4.2 1-.4h.1c.8-.4 2-.6 2.8-.6ZM29 20.7c-.3 0-.4.4-.1.5.2 0 .3.1.5.3.1.2.5 0 .4-.2-.2-.3-.5-.5-.8-.6Zm8.3-.2h-.3v.3l.2.3c0 .3.5.3.5 0 0-.2-.2-.5-.4-.6Z" fill="#000"/></g><rect x=".5" y=".5" width="49" height="49" rx="16.5" stroke="#F5F4F3"/><defs><clipPath id="a"><rect x="1" y="1" width="48" height="48" rx="16" fill="#fff"/></clipPath></defs></svg>