<svg width="50" height="50" fill="none" xmlns="http://www.w3.org/2000/svg"><g clip-path="url(#a)"><rect x="1" y="1" width="48" height="48" rx="16" fill="#F5F4F3"/><path fill-rule="evenodd" clip-rule="evenodd" d="M42.72 41.6c-.78-3.68-3.55-6.55-7.28-7.97-.72-.4-1.42-2.14-2.38-2.46-.15-.05.09.36 0 .38-.32.09-.68.1-1.03-.21-.63-.56-.82-2.19-1.2-2.92-2.02-3.88-7.06-2.36-7.73 1.92-.47.3-1.14.58-1.65.82-.53.26-.99.87-1.53 1.09-.49.2-1.29.06-1.77.23-2.25.78-4.15 1.77-5.64 3.78-.32.42-.67.94-.96 1.37a23.02 23.02 0 0 0-3.44 5.62c-2.64 5.96-3.36 12.57-4 19 .01 1.12-.74 4.24.37 4.78-.07.07-.04.2.08.2 2.81-.02 5.62.23 8.38.71 1.34.24 2.67.56 4.03.61 2.82-.02 5.63-.49 8.45-.04 3.4 0 7.51-.1 11.28-.24 3.53-.14 7.07.17 10.55-.43.28-.04.41-.38.35-.62-.4-1.48-.6-3-.84-4.52a6.98 6.98 0 0 0-.4-2.9 206.2 206.2 0 0 0-3.64-18.2Z" fill="#fff"/><path fill-rule="evenodd" clip-rule="evenodd" d="M41.58 49.65a6.1 6.1 0 0 1-.31 1.05c-.14.33-.34.63-.48.95a.23.23 0 0 1-.08.1v.1l.02.08.21 1.79.04.3c.13 1.24.34 2.48.5 3.72a317.65 317.65 0 0 0 1.07 7.4l.28 1.57.07.4c.78.2.99 1.27.2 1.66a.99.99 0 0 1-1.11-.14c-.31-.3-.32-.83-.4-1.22l-.06-.37a78.33 78.33 0 0 1-1.3-10.61c-.03-.69-.01-1.37-.02-2.06v-.19a45.39 45.39 0 0 1 .02-2.46.24.24 0 0 1-.05-.1l-.01-.05a.37.37 0 0 1 .1-.34c.03-.5.08-1 .1-1.5 0-.04.06-.04.06 0 .04.43.1.85.17 1.28.43-.34.74-.9.93-1.38.01-.03.06-.02.05.02ZM31.47 29.82a2.46 2.46 0 0 0 .71 1.23c.1.09.22.14.34.22.16-.03.33.03.44.15l-.02-.17c0-.06.1-.07.1-.01.5 2.47.94 4.95 1.33 7.44l.17 1.1.16 1.04a124.08 124.08 0 0 1 1.36 12.14c.16 2.34.26 4.68.33 7.02l.05 1.78.12-.7c.12-.72.24-1.42.34-2.13.36-2.55.65-5.1.8-7.67.12-2.35.08-4.74-.52-7.02-.15-.58-.34-1.14-.56-1.7-.22-.53-.51-1.03-.74-1.56a2.9 2.9 0 0 1-.22-1.85c.12-.58.34-1.12.38-1.72a5.95 5.95 0 0 0-.8-3.13l-.42-.75a24.1 24.1 0 0 0-1.48-2.17c-.03-.04.03-.08.06-.05.48.47 1 .93 1.43 1.44.21.25.41.5.6.77a8.12 8.12 0 0 1 5.18 3.39c1.4 1.96 2.12 4.33 2.65 6.66.58 2.59 1.08 5.2 1.6 7.8l1.64 8.07a7662.34 7662.34 0 0 1 1.25 6.03l.24 1.04c.08.4 0 .64-.26.93-.1.1-.26.1-.38.05l-.04-.02-.03-.02a.75.75 0 0 1-.37-.31c-.1-.18-.12-.38-.15-.58l-.2-1.1-.3-1.66-.55-2.75a1582.77 1582.77 0 0 0-2-10.06c-.5-2.52-.94-5.05-1.5-7.55l-.04-.14-.03-.14a17.13 17.13 0 0 0-2.51-6.07 9.17 9.17 0 0 0-4-3.3c.12.16.23.33.33.5A6.06 6.06 0 0 1 37 37.91c-.06.62-.3 1.23-.27 1.86.02.56.37 1.05.6 1.53.55 1.1.94 2.27 1.2 3.47.5 2.4.5 4.88.33 7.33a95.76 95.76 0 0 1-.97 7.94c-.2 1.35-.49 2.69-.7 4.03-.11.67-.26 1.33-.38 2l-.06.3-.11.53-.03.1v.02c0 .13-.03.23-.09.32-.08.24-.17.48-.3.72a.4.4 0 0 1-.26.2.68.68 0 0 1-.62.42l-3.7-.01-6.42-.04-1.62-.02c-.5-.02-1-.08-1.5-.14-.56-.07-.87-.47-.78-1.03l.05-.38a.34.34 0 0 1-.33-.06l-.09-.09a1.38 1.38 0 0 1-.3-.38l-.2-.5a83.14 83.14 0 0 1-1.25-3.18 54.54 54.54 0 0 1-2.9-12.17l-.07-.63-.03-.2a19.05 19.05 0 0 1-.17-3.1c.03-.64.13-1.3.37-1.9.22-.55.57-1.02.9-1.52l.03-.05.04-.06c.29-.45.51-.92.53-1.47 0-.56-.16-1.1-.34-1.62l-.04-.12-.03-.09c-.39-1.07-.83-2.13-.68-3.3a6.51 6.51 0 0 1 2.58-4.18c-1.18.23-2.34.69-3.36 1.27-1.21.68-2.3 1.58-3.24 2.6a23.37 23.37 0 0 0-4.08 6.63 44.2 44.2 0 0 0-2.5 7.76 66.85 66.85 0 0 0-1.3 8.1 114.3 114.3 0 0 0-.33 4.07c-.05.7-.08 1.39-.14 2.08-.05.7-.08 1.4-.25 2.08-.07.31-.61.35-.67 0a11.4 11.4 0 0 1-.05-2.36v-.07a96.33 96.33 0 0 1 .58-7.12c.68-5.57 1.93-11.12 4.37-16.2a19.09 19.09 0 0 1 4.68-6.46c.98-.82 2.08-1.48 3.27-1.95a8.66 8.66 0 0 1 3.27-.63c.57-.43 1.17-.8 1.78-1.13.04-.02.08.03.05.06l-.05.04a.3.3 0 0 1 .2.1c.23.24.41.53.58.83l.76.97a69 69 0 0 0 3.47 3.92l.13.13c.4.4.8.88 1.27 1.2l.02.01c.2.13.34.16.51-.04.15-.17.28-.37.41-.57l.03-.04a33.1 33.1 0 0 0 2.6-4.46l.07-.14c.12-.27.26-.53.36-.8l.07-.2a2.04 2.04 0 0 1-.73-1.12c-.1-.41-.05-.83.14-1.2.03-.07.15-.06.17.02ZM13.96 46.39c-.05 1.55-.08 3.1-.15 4.65l-.03.53c.11.13.18.28.13.48a.26.26 0 0 1-.16.17l-.02.5c-.11 2.2-.24 4.41-.47 6.62-.3 2.76-.63 5.52-.97 8.28-.05.39-.32.7-.74.64-.43-.06-.6-.43-.55-.82.22-1.52.43-3.04.62-4.57l.21-1.73a298.36 298.36 0 0 1 1.26-9.23l-.05-.06-.6-.75c-.38-.48-.76-.96-1.11-1.46-.02-.03.02-.06.04-.05.5.37.96.76 1.43 1.15l.41.35c.24-1.57.48-3.13.68-4.7.01-.04.07-.04.07 0Zm7.1-14.84-.9.83-.11.1-.11.1c-.53.5-1.03 1.02-1.45 1.61a4.65 4.65 0 0 0-.91 3.75c.27 1.1.88 2.1 1.04 3.23a3.2 3.2 0 0 1-.17 1.67c-.22.55-.57 1.02-.88 1.5a5.62 5.62 0 0 0-.71 3.49 54.37 54.37 0 0 0 2.08 11.55c.38 1.26.82 2.5 1.25 3.74a27.11 27.11 0 0 0 1.16 2.76c-.05-.45-.05-.9-.08-1.34l-.13-1.89a272.42 272.42 0 0 1-.65-17.5c0-2.29.05-4.57.15-6.85.04-1.07.13-2.14.21-3.21l.02-.23c.07-.97.16-1.93.3-2.88-.04-.1-.08-.2-.1-.3l-.01-.04v-.09Zm2.56-3.92c.01-.02.05-.02.06 0 .16.56.1 1.18-.04 1.74-.08.31-.19.6-.32.9l-.05.1c-.11.24-.24.49-.46.64-.1.06-.26.07-.36 0l-.04-.04-.03-.01a.34.34 0 0 1-.09-.34c.1-.27.34-.47.5-.72.14-.21.27-.44.38-.68.22-.5.33-1.05.45-1.59Z" fill="#000"/><path fill-rule="evenodd" clip-rule="evenodd" d="M27.75 6.4c2.52 0 5.55 1.2 5.8 1.23h.01c.14 0 .67.4 1.59 1.2l-1 1.95.08.08c.39.36.72.7.98.97 2.13 2.16 2.51 10.67 2 13.64-.5 2.97-1.42 5.87-5.75 5.87s-9.14-2.59-9.88-3.4a2.1 2.1 0 0 0-1.67-.77 25.9 25.9 0 0 1-.07-.1h-.1a5.63 5.63 0 0 1-1.83-.5c-.72-.4-1.51-2.54-1.51-3.02 0-.46-1.18-3.85-1.2-4.2v-.02c0-.3-1.55-1.68-1.55-2.11 0-.44-.32-.42 0-1.96l.09-.45c.33-1.64.98-4.36 3.45-5.54 2.72-1.3 8.01-2.88 10.56-2.88Z" fill="#fff"/><path fill-rule="evenodd" clip-rule="evenodd" d="M16.77 9.2c1.36-1.43 9.06-3.65 12.96-3.18l.12.02c.3.04.61.1.92.18.97.23 1.98.57 2.8 1.14.67.47 2.8 1.24 2.17 2.47.23.44.32.98.16 1.42-.02.15-.07.28-.13.43.5.73.9 1.55 1.21 2.34.56 1.97.9 4.03.96 6.04.16 3.83-.26 8.4-3.6 10.89a5.97 5.97 0 0 1-7.48-.33c-.12-.15-.73-.56-.53-.63a5.8 5.8 0 0 0 .18.16l-.06-.05c-.1-.1-.25-.25-.09-.22l.03.02a.8.8 0 0 1 .08.05v.01c-.09-.1-.15-.2 0-.14l.01.01a5.26 5.26 0 0 0 .2.17l-.06-.06c-.06-.06-.05-.06-.02-.1-.13-.18.1-.08.12 0 .15-.04.28.23.38.27 4.17 3.19 10.22.36 10.12-8.54v-.17c-.03-2.84-.27-5.77-1.45-8.34a7.41 7.41 0 0 0-.7-1.23 4.66 4.66 0 0 1-1.24-.26l-4.52.25-.47.03c-1.29.08-2.62.22-3.66 1-1.01.73-1.02 2.15-1.9 2.94-1.23.84-1.24 1.6-1.48 2.84.01.93.66 2.29-.53 2.68.2.29-.08.15-.1.05.17.33-.09.12-.11.02a.1.1 0 0 1-.05-.03c.19.3-.1.09-.09.03-.35-.53-1.07-.61-1.57-.47-.01.02-.03.02-.05 0-2.15.47-1.6 4.91.61 4.48.1-.02.1.03.11.03-.05-.13.1-.07.1-.05h.01c-.05-.27.23.13.2.14h.04l-.01-.03c-.05-.13-.05-.07-.05-.14-.03-.1-.03-.05-.02-.1.12-.1.15.18.2.2-.08-.1-.02-.17.04-.12a9.16 9.16 0 0 0 1.97 2.79l.28.2c.35.31.9.51 1.23.78l-.01.02.02.01.11.06.1.1.07.1c0 .05-.02.07-.06.05l-.06-.03c0 .02.05.12 0 .1l-.09-.03.1.12c.02.03.04.06.04.1 0 .02-.01.03-.03.03a2.7 2.7 0 0 1-.1-.04l.01.02c.02.04.06.12 0 .1l-.15-.06h-.02c-.15-.05-.3-.11-.44-.19l-.37-.26a2.83 2.83 0 0 1-.33-.24 7.25 7.25 0 0 1-1.83-1.68c-.83.71-2.48.03-3.5-.53-.91-.5-1.27-1.42-1.36-2.42-.2-1.34-1.29-1.8-1.21-4.74h-.01a.58.58 0 0 1-.12-.04.58.58 0 0 1-.1-.07l-.04-.06a.35.35 0 0 1-.06-.03c-.03.04-.01 0-.01-.02l-.07-.1-.51-.69v.02a4.44 4.44 0 0 1-.8-1.74c-.11-.46-.07-.94.03-1.37.41-1.5 1.78-4.91 3.56-6.37Zm9.78 20.83-.02-.02.02.03.04.03a.76.76 0 0 1-.04-.04Zm3.16-23.25c-2.64-.23-5.24.35-7.76 1.06l-.18.04c-1.43.41-2.95.78-4.16 1.65-1.69 1.3-2.56 3.35-3.33 5.24-.66 1.41-.32 3 .68 3.98.1-.97.28-1.92.56-2.86.06-.15.02-.2.14-.22.19 2.54-.74 4.41 1.1 7.42.8 1.42-.12 2.46 2.13 3.2l.06.03c.48.17.99.31 1.45.22l-.04-.07c-.04-.07-.06-.1 0-.13v-.01l-.14-.29-.06.02c.01.02.01.04-.02.05a.99.99 0 0 1-.38.05h-.03a1.3 1.3 0 0 1-.33-.06l-.08-.01a1.9 1.9 0 0 1-.73-.36c-2.09-1.18-1.87-5.2.7-5.58.05-2.53 1.26-6.8 3.27-9.21 1.81-2.22 6.76-3.18 10.2-2.84l.16.05c.53.04 1.04.28 1.57.39a4.8 4.8 0 0 0-1.26-.64 9.13 9.13 0 0 0-3.52-1.12Zm-10.54 15.4c.14-.07.13 0 .16-.02 1-.08 2.07.79 2.62 1.5-.04.05-.16-.08-.18-.1h-.01l.01.03c.23.32-.22-.06-.26-.14h-.02c.03.04.14.13.16.2l.03.02c.27.23.25.4-.06.07v.05h.02c.15.1.27.4-.05.1.04.22-.3-.2-.32-.2a4.65 4.65 0 0 0-2.23-.99h-.02c-.14-.02-.2-.06-.16-.15-.17-.04-.13-.12-.05-.12-.12-.08-.01-.15.06-.12-.05-.13.14-.05.16-.06.1-.16.13-.03.14-.07Zm-2.08-8.15c.47-.18 1.89.35 1.77 1.04-.06.16-.29.25-.44.16l-.2-.14c-.36-.24-.68-.44-1.06-.65-.2-.1-.3-.32-.07-.41ZM19.8 13l-.19-.12c-1-.65-2.4-1.63.1-.61.28.12.66.19.81.46.25.5-.4.53-.72.27Zm.1-2.91c-.07-.3.92.05 1.21.14l.05.02c.28.1.6.2.77.44.2.34-.2.4-.45.26-.5-.33-1.06-.58-1.57-.86Zm2.54-1.41c-.56-.6.94-.03 1.16.14.17.12.14.37-.02.45-.44 0-.77-.37-1.14-.59ZM25 8.01c-.9-.63.28-.33.69-.08.27.24-.01.65-.7.08Z" fill="#000"/><path fill-rule="evenodd" clip-rule="evenodd" d="M30.02 24.54c.32-.51.99.75 1.06.97.06.2.1.39.13.59.24.05.5.05.75 0 .37-.07.6-.26.92-.44.22-.11.5.03.62.22.14.23.05.47-.13.64-.34.33-1.01.4-1.46.32a1.88 1.88 0 0 1-.7-.29v.13c-.03.36-.13.81-.42 1.05-.46.38-1.03-.36-.58-.74l.01-.01c.28-.23.34-.83.33-1.17a2.4 2.4 0 0 0-.12-.64l-.01-.04c-.02-.06-.25-.61-.33-.54-.04.04-.1 0-.07-.05Zm2.52-2.9c.42.25 1.07.85.61 1.49-.53.56-1.3-.09-1.7-.38-.35-.22-.74.36-.42.62 2.77 2.04 3.89-1.67 1.72-2.04-.23-.04-.32.22-.21.3ZM28 19.24c.41-.07.84.03 1.18.27l.03.02c.33.24.7.67.51 1.08-.08.17-.3.2-.45.12-.24-.13-.29-.44-.5-.6a.93.93 0 0 0-.64-.21c-.54.04-.87.57-1.03 1.02-.02.06-.11.08-.14.02-.4-.73.3-1.59 1.04-1.72Zm6.66-.27c.8-.07 1.72.75 1.51 1.59-.1.4-.7.39-.8 0-.06-.21-.05-.4-.2-.58a.61.61 0 0 0-.51-.22.9.9 0 0 0-.57.27c-.14.14-.22.34-.36.46-.03.03-.08.03-.12 0-.24-.23-.1-.7.06-.93.22-.33.58-.56.99-.6Zm-8.18-1.21c.51-.45 1.44-.89 2.13-.67.4.13.57.77.12.97-.5.23-1.1.14-1.62.38-.22.1-.42.23-.58.41-.12.15-.24.34-.41.43-.05.02-.11.02-.15-.02-.38-.43.18-1.21.5-1.5Zm7.3-.69a2.29 2.29 0 0 1 1.9.35l.02.02c.29.22.63.53.61.9-.01.33-.35.54-.64.37-.23-.13-.35-.4-.54-.58a1.88 1.88 0 0 0-1.28-.5c-.18 0-.38.07-.56.09.01.03-.13.01-.22-.01-.06-.03-.06-.1-.04-.16.1-.25.5-.41.75-.48Z" fill="#000"/></g><rect x=".5" y=".5" width="49" height="49" rx="16.5" stroke="#F5F4F3"/><defs><clipPath id="a"><rect x="1" y="1" width="48" height="48" rx="16" fill="#fff"/></clipPath></defs></svg>