<svg width="50" height="50" fill="none" xmlns="http://www.w3.org/2000/svg"><g clip-path="url(#a)"><rect x="1" y="1" width="48" height="48" rx="16" fill="#F5F4F3"/><path fill-rule="evenodd" clip-rule="evenodd" d="M41.3 40.4c-.5-1.9-1-2.7-1.8-3.4-.8-.6-2-1.1-3.8-1.5-1.8-.3-1.8-1.3-2.3-2.8-.1-.5-.8-.6-1-.2l-.2-.2-.3-1c.2-2.2-.5-3.3-2.3-3.7h-3.4c-1.6.4-3.2 1.9-3 3.6-.5.7-1 1.1-1.8 1.3l-5.3.6c-3.5.6-6.7 2.4-9 5-.1.3-.2.7 0 1-.1.6-1 2-.3 2.4-1 2.5-3.4 7.3-3.4 8.7 0 5.7.6 13.2 6.2 16.4.3.2.3.5.4.8.2 1 1.1 1.8 2.1 1.7 4.9.1 9.6-.5 14.4-.5 2.1 0 4.7.3 6.6.5 1.8.3 3.7 0 5.5-.5.1.3.4.4.8.3a9.6 9.6 0 0 0 4.6-2.7c.4-.8 2-2.8 1.3-3.6.6-2.4.6-5-.4-7.2v-1.3c0-.3.3-.4.4-.7.1-.5 0-1-.2-1.5l.2-.7c.2-1-.4-1-.8-1.6l.1-.6a2 2 0 0 0-.2-1 .5.5 0 0 0-.5-.4l.7-2c.5-1.2 1.2-2.4 1.9-3.5.3-.5-.1-1-.6-1-1.5-.1-3-.3-4.6-.7Z" fill="#fff"/><path fill-rule="evenodd" clip-rule="evenodd" d="M36.7 49.7c-.6-.3-1.3-.4-2-.5l1.2-.1.6.1.3.5Zm6.7-2.3c-1 0-2 .3-3 .7-.3.2-.7.4-.8.9v.6c0 .2 0 .4.2.5a7 7 0 0 0-.9.6c-.2.2-.5.5-.6.8v-.1c-.3-.6-.6-1.2-1-1.5v-.3c0-.5-.6-1-1.2-1s-1.3.3-1.8.6h-.6a13.7 13.7 0 0 1 1.6.4l1.4.4c.8.4 1.3 1.5 1.2 2.4 0 .2 0 .6-.3.6l-.3-.6c-.1-.3-.4-.6-.8-.7l-1.3-.5-.7-.3c-.3 0-.5-.2-.8-.1-.1 0-.2.2 0 .3 0 .2.3.3.5.3l.8.3 1.2.4s-.1 0 0 .1v1.2c-.1.3-.4.6-.7.5v-.2c0-.3-1.8-1.4-2-1 .2 0 .4.3.5.3l.5.3.4.4.4.2-.2.2c0 .2-.1.4-.4.5H34l-.8.5c-.5.4-.7 1.2-1.4 1.5h-1.3c-.4-.1-.9-.2-1.3-.1-.5 0-.9.2-1.3.4l-1.1.6-.2-.6-.2-1.6v-1.5l.1-.8v-.2l1.9-.9.2-.2c1-.6 1.7-1.4 2.3-2.4l.7-1.2c.4-.4.8-.6 1.3-.7.5-.2 1.1-.2 1.7-.3h1.7c.4.1.6.4.8.6a17.4 17.4 0 0 1 1 1.5l.2.5.1.2c-.2 0-.2.5 0 .5 1.1 0-.4-2.2-.6-2.5-.4-.4-.7-1-1.2-1.1l.4-.5.2-.6c0-.2-.1-.2-.2-.1l-.2.6-.3.5h-.7a28.6 28.6 0 0 0 1.6-2.7l.8-1.5.4-.8.2-.3.3-.3.3-.1h2.9l2.1.2 1.9.2a59.4 59.4 0 0 1-2.9 6Zm-4.6 5.1c-.2 0-.3.2-.4.3v-.5l.4.2Zm5.8-3.4c-.3.4-.2.8.1 1.1.2.2.5.4.5.6l-.3.6v.5c0 .2.3.3.4.5 0 .3 0 .7-.2.9l-.4.7c-.7.3-1.3.9-1.8 1.5-.6.6-1.1 1.3-2 1.3h-.2a18.4 18.4 0 0 1-2.1 0v-1.4c0 .3.4.4.8.4l1.7-.2.9-.2c.2 0 .6 0 .8-.2V55h-.5a31.8 31.8 0 0 1-2.8.5l-.7-.1c-.3-.4-.1-1 .1-1.3l.7-.2 1.2-.2 2.6-.2c.2 0 .2-.4 0-.4-1.3.1-2.5.2-3.7.5l-1 .2h-.4c-.3 0-.3-.2-.2-.4h.1l1-.9 1.2-.2 3-.7c.1 0 0-.4-.1-.3l-2.3.5-1 .2-.8.2a1 1 0 0 1-.4 0c-.3 0-.3-.5-.2-.8.2-.3.5-.5.8-.6L41 50h.2l1.7-.4v-.3l-1.3.2-1.2.3H40v-.1L40 49c0-.4.4-.6.7-.7a7.8 7.8 0 0 1 3-.7c.2 0 .4 0 .5.2l.4 1.2Zm-1 12.7c-.3-.6-.2-1.2-.3-1.8l-.2-1-.2-.6c.2 0 .4.4.5.6l.4.8c.2.6.4 1.4.1 2 0 .1-.3.2-.4 0Zm-5.2-7.6h.5c-.2 0-.3.2-.4.5v-.5ZM37.1 66l-.6-.6c-.2-.3 0-.6.3-.4l.5.6c.1 0 .2.2.1.3h-.3Zm-1.4-6.6 1.4-.6c.3 0 .4.4.1.5-.4 0-.8.3-1.2.5-.3 0-.5-.3-.3-.4Zm-4.7-.2c0-.2.4-.3.5 0l.4.8c0 .3-.4.4-.5.2l-.4-1Zm-4.6 5.5H26c-.1 0-.2-.2-.1-.3l.7-.8c.2-.2.5.1.3.3l-.6.8Zm-.7-30.4.6.5c.2.2-.1.5-.3.3l-.5-.4c-.1-.1-.2-.2 0-.3 0-.2.1-.2.2-.1Zm6.8 7.3-.2.7c0 .3-.5.3-.5 0l.3-1c.1-.2.5 0 .4.3Zm2.5-5.9c.2-.2.4.2.2.4l-.6.4c-.2.2-.5-.2-.2-.4l.6-.4ZM24.2 46.1c0 .3-.5.1-.4-.2l.2-1.3c.1-.2.5-.1.5.2-.2.4-.2.8-.3 1.3Zm-1.6 5.2c-.3 0-.3-.5 0-.5s.5 0 .8.2c.3 0 .2.5-.1.4l-.7-.1ZM22 61.7l-.3.2a470.7 470.7 0 0 0-1.8.8L17.3 64l-2.5 1.2-1.2.6c-.4.1-.8.4-1.2.4l.5-.4.6-.3a73.7 73.7 0 0 1 3.7-1.9l2.6-1.3a412.5 412.5 0 0 1 1.8-.8l.3-.2h.4c.2-.1.3.2 0 .3 0 0-.1.2-.3.2Zm-3 4.7c0-.1 0-.3.2-.3.1 0 .2 0 .3.2 0 .3.3.6.5.8.2.2-.1.5-.3.3l-.7-1Zm-2.2-7.3c-.2-.2.1-.5.3-.3l.6.6c.2.2-.1.5-.3.3l-.6-.6Zm-6-1c-.4.2-.9.3-1.2.7.4-.8 1.4-1.1 2.1-1.4l1.6-.5.2-1.8a40.3 40.3 0 0 0 0-4v-2a16 16 0 0 1 .4 6v1l-.1.7 1-.2 3-.7 1.5-.4 1.4-.3c.2 0 .2.2.1.3l-1.4.6-1.3.4-3 .6-2.9.7c-.5 0-1 .2-1.4.4Zm-2.3-12c-.2 0-.5-.3-.2-.5l1-.5c.3 0 .4.4.1.5l-.9.4Zm-.9 16.8c-.2.1-.5-.3-.2-.4l1-.5c.3-.2.6.2.3.4l-1 .5Zm-.4-9.6.9.5c.2 0 .1.5-.1.4-.4-.2-.8-.3-1.1-.6-.2-.2 0-.5.3-.3Zm2.7-13c.3.1.1.5-.1.4l-1-.3c-.2-.1 0-.5.2-.4l.9.3Zm4.7-5.2c.3 0 .4.4.2.5l-1 .2c-.4.1-.5-.3-.2-.4l1-.3Zm1.6 12.6c-.3-.1 0-.5.2-.4l.9.3c.3 0 .2.5-.1.5l-1-.4Zm1.5-7c.3-.2.4.3.1.4l-1.5.3c-.3 0-.4-.4-.1-.5l1.5-.3Zm6.3-2.3c.3 0 .1.5-.1.4a5 5 0 0 0-1 0c-.2 0-.2-.5 0-.5l1 .1Zm20.5 2.4-2.2-.2h-.1c-.3-.4-.5-.7-.6-1.1l-.5-1.2-1-1-.7.6c-.2.2-.5-.1-.3-.3l.6-.5-.7-.4a34 34 0 0 0-2.6-1.4l-1.3-.5-.7-.3-.1-.5-.3-.1-.2-.4-.4-1c-.3-.4-.8-.6-1.2-.4 0-.5 0-1-.3-1.5-.2.4-.2.7-.2 1.1v1a1.7 1.7 0 0 1-.5.4l-1 .1c-.9 0-1.7 0-2.6-.2-.8-.1-2.1-.3-2.8-.7l-1.5-1c.2-.5.2-1.1 0-1.6-.2.4-.2.9-.3 1.3h-.5c-1 1.6-2.5 1.7-4 2-1.9.2-3.6.6-5.3 1.2A11.5 11.5 0 0 0 8 37.7l.7.1c.2.1.1.5-.2.4a4 4 0 0 0-.9-.1 27.7 27.7 0 0 0-4.2 11.5l.6-.3c.3-.1.5.3.2.4l-.8.5c-.1 1.2-.2 2.3-.1 3.5 0 2.8.4 5.7 1.3 8.4.4 1.3 1 2.6 1.7 3.7a6.5 6.5 0 0 0 2.1 1.8l1.1.5.2.4v.7l.2.1c0 .1 0 .1 0 0h2.7l-.2-.6c-.1-.3.3-.4.4-.1l.2.7 2.8-.1 5.8-.2h9.2l.3-.7c.1-.2.5 0 .4.2l-.3.5 1.9.1 3.1.4c1 .1 2.1.1 3.2 0 .1-.1.3-.2.3-.4l.2-.1.2-.1.4-.1h.6a4 4 0 0 0 1.1-.4l.6-.4a7.4 7.4 0 0 0 1.4-1.6L45 65l.2-.3c-.4-.2-.8-.3-1.3-.3-.3 0-.3-.4 0-.4l1.5.2v-.1l.2-.4v-.2l.2-.7a8.6 8.6 0 0 0 .4-1.7 13.2 13.2 0 0 0 0-2.8v-.7l-.2-1-.2-.7a13.6 13.6 0 0 0-.6-1.6s-.1 0 0 0v.1H45l-.1-.2.5-.8.3-.7c0-.3 0-.5-.2-.7-.2-.2-.5-.3-.3-.6s.5-.6.2-1L45 50a1 1 0 0 1-.3-.8c.2-.5 0-1-.1-1.5-.1-.3-.3-.3-.5-.4a77.6 77.6 0 0 0 2.6-6.3l-2.1-.2Z" fill="#000"/><path fill-rule="evenodd" clip-rule="evenodd" d="M37 11.4c-.2-.3-.4-.7-.8-.7-.3-.9-1-1.8-2-1.8-2.9-3-6.5-2.8-10.3-2.2-2 .4-4.1 1.1-5.6 2.6-1.8 1.7-2.5 4.7-1.1 6.9-1.2.6-1.3 2.2-.7 3.3-.7.4-.7 1.5 0 1.8v.5l-1.1.7c-.2 0-.3.2-.3.3-1.3.9-4.3 2.9-4.3 4.4 0 .9.6 1.4 1.3 1.6-.4 1-.7 2-.3 3l1 1c.1.1 1.4-.4 2-.7 0 .7.9 1.2 1.6.9.7-.2 1.1-.8 1.5-1.3.6 1.2 2.2 1.2 3.3.7 1-.4 1.7-1.3 2.1-2.3 2.2 1.1 4.7 1.4 7 1 .2.3.5.5.8.3 1.3-.3 2.7-.4 3.7-1.2 2.2-1.6 2.4-4.6 2.3-7-.2-2.6 0-5-.5-7.6l.8-2c.3-.7.3-1.8-.5-2.2Z" fill="#fff"/><path fill-rule="evenodd" clip-rule="evenodd" d="m16.4 22 .1.2-2.1 1.4-1.8 1.5v.1c-.6.5-1.1 1.2-1.1 2 0 .6.4 1.2 1 1.1.3 0 .5.3.4.5v.3c-.4.9-.8 2-.5 3 .1.2.2.4.4.4.3 0 .5 0 .8-.2.4-.1.9-.4 1.2-.7.3-.3.8 0 .7.4 0 .4.6.6 1 .5.6 0 1-.7 1.3-1.2.2-.2.6-.3.8 0 .3.7.9 1.1 1.6 1.1a1.8 1.8 0 0 0 1.3-.5l.5-.4c.2-.1.4 0 .4.2 0 .3 0 .5-.2.8a2.7 2.7 0 0 1-2 .8c-.8 0-1.6-.4-2-1-.5.6-1.1 1.1-2 1-.5 0-1-.2-1.3-.7-.4.2-.8.5-1.3.6-.6.2-1.3.2-1.7-.4-.4-.6-.4-1.4-.3-2 0-.6.2-1.2.4-1.7a2 2 0 0 1-1.2-1.4c-.2-.9.2-1.8.8-2.5a11.2 11.2 0 0 1 4.8-3.2ZM36.7 15a84.4 84.4 0 0 1 .8 9l.2 3c0 1.5-.8 2.7-2 3.6a10.1 10.1 0 0 1-7.7 1.3h-.2c-.3-.2-.7-.3-.8-.7 0-.2.1-.3.3-.4h.7l1 .2c.9.2 1.7.2 2.5 0a7 7 0 0 0 3.8-1.4c.5-.4.9-1 1-1.5.4-.7.3-1.5.3-2.3V14.9ZM23 6.4C24.6 6 26.2 6 28 6c1.5.2 3.2.5 4.5 1.5-.9 0-1.7-.3-2.5-.5l-2.5-.3c-2.7 0-5.8.6-8 2.3-1.1.8-1.9 2-2.2 3.2-.3 1.4-.2 2.8.5 4 0 .2 0 .5-.2.6-.6.2-1 .9-1 1.5 0 .4.1.7.3 1l.7.7c.1.1.1.3 0 .4l.4.1v.3c-.3.1-.5 0-.7-.2l-.1-.2-.6-.3c-.3.2-.4.7 0 1 0 .2.3.3.5.3l.5.3c0-.2.2-.3.3-.5.4-.5 1-1 1.7-1 .6 0 1 .5 1.2 1 0 0 0 .1 0 0-.3-.6-1.2-.6-1.7-.3-.6.4-1 1.2-1 1.9-.2.6-.1 1.5.4 2l.7.4h.5c.1 0 .2-.1.2 0h.1c.1 0 .1 0 0 0 .2 0 .3 0 .3.2.7.8 1.1 1.7 1.8 2.4l.2.2c.5.6 1.1 1.2 1.8 1.5.3.1.5.2.5.5 0 .2-.2.4-.4.4-.4.1-1-.3-1.2-.5a8.5 8.5 0 0 1-1.8-2v-.1c-.5-.7-.8-1.4-1-2.1-.1.2-.2.2-.3.2H19c-.4 0-.7-.1-1-.4-1-.8-1.2-2.2-.8-3.4-.3.1-.7-.1-1-.3-.2-.2-.5-.5-.5-.9s.2-.8.5-1c-.3-.4-.6-1-.6-1.5 0-.9.4-1.7 1.1-2.1-.6-1.4-.7-3-.3-4.5.9-3 3.8-4.6 6.5-5.4Zm-2.4 22.4c0-.2.1-.7.5-.5.3.2 0 .7 0 .9a1 1 0 0 1-.7.6c-.3 0-.5 0-.7-.2a.7.7 0 0 1-.2-.3l-.4.6c0-.3 0-.8.3-1 .3-.2.5 0 .6.2.2.3.5 0 .6-.3Zm-2.6-1c.3-.4.7-.8 1.1-.5.2 0 .2.3 0 .4l-.5.5-.5.5c-.4.3-1 .4-1.2 0l-.2-.2c-.1.3-.3.5-.5.6-.3.2-.8.3-1.2.1.5 0 1-.4 1.2-1l.4-.4c.2 0 .4 0 .6.2 0 0 .1.3.3.3.2 0 .4-.4.5-.5Zm-1.5-3.1c.2-.1.3 0 .4.1.1.6-.5 1.2-1 1.2h-.4l-.4-.3-.3.3-.4.3h-.1V26c.2-.4.5-1 1-.9.3.1.5.4.8.2l.4-.7Zm2.4-2.3c.5-.6 1.7-.3 2 .4 0 .2 0 .4-.2.5-.1.2-.4.2-.6 0l-.3-.3-.7-.4-.2.1V22.4Zm3.3-6.4c.1 0 .2 0 .2.2 0 .3 0 .4-.3.5a1.9 1.9 0 0 1-1 .2V17.7c0 .4.1.7.3 1 .3.8.4 1.5 0 2.2l-.3.2c-.1 0-.2 0-.3-.2v-.4c.2-.3.2-.7.1-1 0-.4-.2-.7-.3-1-.2-.6 0-1.2.3-1.7a1 1 0 0 1-.6-.3l.1-.2h.9l.4-.2.5-.1Zm.7-4.2c.7 0 1.3.5 1.6 1 .3.8.2 1.6 0 2.2l-.2.2c-.1.4-.3.8-.6 1-.3.1-.6-.1-.5-.5 0-.2.2-.4.3-.5l.4-.6c.2-.3.3-.7.3-1.1 0-.8-.5-1.6-1.3-1.6Zm3.6-1.2c.9.5 1.5 1.5 1.6 2.5a3 3 0 0 1-.2 1.6c-.1.3-.3.6-.7.6a.6.6 0 0 1-.6-.4v-.2c.4-.2.6-.5.8-.8l.2-1.1c0-.9-.4-1.6-1-2.2Zm10.2.4s0-.1 0 0c.6.2 1 .8 1.1 1.5.1.7 0 1.6-.5 2-.3.3-.8 0-.6-.4l.5-.7v-.8c0-.6-.1-1.2-.5-1.6Zm-7.4-.8c1 0 1.7 1.1 1.8 2 .1.5 0 1.1-.3 1.6-.2.4-.7.8-1.2.6-.2 0-.2-.3 0-.4.1-.3.5-.4.7-.7.2-.3.2-.7.2-1 0-.8-.3-2-1.2-2v-.1Zm3.2-.2c1-.1 1.6 1 1.8 1.8.1.6.2 1.1 0 1.6-.1.4-.5 1-1 .9 0 0-.2-.2-.1-.4 0-.2.1-.2.3-.3l.3-.4.1-1.2c0-.8-.5-2-1.4-2Zm1.8-1.1c.6-.2 1 .3 1.4.7l1 1.6c.1.5.1 1 0 1.6l-.4.7c-.2.3-.4.4-.7.3l-.1-.2c0-.3.2-.3.3-.5.2-.1.3-.3.3-.5.2-.4.2-.9 0-1.3 0-.4-.2-.9-.5-1.3-.3-.5-.7-1.1-1.2-1v-.1Z" fill="#000"/><path fill-rule="evenodd" clip-rule="evenodd" d="M31.2 27.4c-.4-.1-.7-.4-1-.7 0-.1-.1-.2 0-.4l.1-.3h.4l.3.1c.1.3.3.4.5.5l.7.2c.5-.1.8-.4 1.1-.7a10.4 10.4 0 0 0 .3-.2h.2v.2c0 .4-.1.7-.4 1l-1 .5a2 2 0 0 1-1.2-.2Zm1.3-5.4c.5.2 1.1.8.7 1.5-.6.5-1.4-.1-1.7-.4-.4-.2-.8.4-.5.6 2.8 2 4-1.7 1.8-2-.3 0-.4.2-.3.3Zm-5-2.4c.1-.6 1-.8 1.1-.2 0 .5 0 1-.2 1.5-.3.4-.8.2-.9-.2v-1.1Zm6.9-.3c0-.2.3-.3.5-.2.6.2.4 1.2.2 1.6-.1.3-.5.3-.7.1-.3-.4-.5-1 0-1.4Zm-6-2.3c.4 0 .8-.1 1 .1.2.2.2.4 0 .6-.3.2-.6.1-1 .1l-.8.2-1.6.8s-.1 0 0 0c.2-.7.8-1.2 1.4-1.5l1-.3Zm5.3-.3h.1c1 .2 2 .6 2.5 1.5v.1l-.1.1-.6-.2h-.1l-.6-.3c-.4-.2-.8-.3-1.3-.3l-.2-.1-.2-.2v-.4l.3-.1h.2Z" fill="#000"/><path fill-rule="evenodd" clip-rule="evenodd" d="M37.3 21.1c-.2.5-.4 1-.7 1.3-1.2 1-2.4.4-3-1-.2-1 .4-2 1-2.7 1-1 2.4-.5 2.9.6v.5c0 .4 0 .8-.2 1.3m-11.5-.9c1.5-1.9 4.5-2 4.4 1-.3 3.6-6 2.7-4.4-1Zm12-1.5-.2-.3-.1-.2c-1.2-1.3-3.4-.6-4.2.8l-.3.6c-.8-.2-1.7-.1-2.4.1-.7-1.8-2.8-2-4.2-1.2-.9.5-1.4 1.4-2.3 1.9-2 .1-4.1-.3-6 .2-1.6.3-.3 1 0 .5 1.8-.5 4 0 5.9-.2.2.4.6.6 1 .6.4 3.7 5.7 3.1 5.9-.2.2-.3.4-.6.8-.8l.4-.1c.2 0 .5 0 .7.2.7 4 4.6 3.6 5.3 0v-.1c.3-.3.9-.5.8-1 0-.5-.8-.5-1.1-.8Z" fill="#000"/></g><rect x=".5" y=".5" width="49" height="49" rx="16.5" stroke="#F5F4F3"/><defs><clipPath id="a"><rect x="1" y="1" width="48" height="48" rx="16" fill="#fff"/></clipPath></defs></svg>