<svg width="50" height="50" fill="none" xmlns="http://www.w3.org/2000/svg"><g clip-path="url(#a)"><rect x="1" y="1" width="48" height="48" rx="16" fill="#F5F4F3"/><path fill-rule="evenodd" clip-rule="evenodd" d="M4.5 73.5c-.1 0 0 0 0 0Zm2.2 1.7c2.2.3 4.3 0 6.5-.2 4.3-.3 8.6.6 12.9.3 5.4-.2 10.8-.6 16.2 0 1.5.1 3.9.5 3.3-1.8C45 67.6 44 61.7 43 56c-.9-3.3-1-9-3.3-11.3-.4-.3-1.6-1.3-2-1.4-1.6-.7-4.5-1.1-5.7-2.4-1-1.7-.5-4-2-5.2-1.4-1.1-4.3-.9-5.7 0-1.2.6-1.3 2-2 3.1-.2.3-.6.9-.9 1-.5.6-2.5 1.2-3 1.3-3.3.6-5 1-7.5 3.2-6.6 6.7-5.7 18.7-7.5 27.5-.1 1-.7 2.3.4 3 .9.4 2 .3 3 .5Z" fill="#fff"/><path fill-rule="evenodd" clip-rule="evenodd" d="M31.3 38.5c0 .5.3 1 .4 1.3.2.4.5.8.8 1 .6.7 1.4 1 2.3 1v-.1c.1-.6.9-.6 1-.2l.2.1.6.2c.2-.1.4 0 .5.2l.1.8c2.4.7 3.7 3 4.4 5.2l.8 3.6.8 3.8c.4 2.6 1 5 1.3 7.6l.1.8a247.1 247.1 0 0 1 1.6 11.5v.3c.1.3.2.6 0 1-.3.6-1.3.5-1.4-.2 0-.2 0-.3.2-.4l-.1-.5-.1-1a382 382 0 0 0-.8-6l-.1-1.2a258.3 258.3 0 0 0-3.5-19.7 9.8 9.8 0 0 0-3.2-4.5l.1.6.2 1.7a45 45 0 0 0 1.8 9l.6 1.3c.2.5.6 1 .6 1.4 0 .3-.2.5-.5.5l.3 2.7.2 4 .7 7.1.2 1.4V74l.2.9c0 .4-.2.8-.6.8h-.2l-1.2.2h-5l-11.8-.1h-1.6a213.4 213.4 0 0 1-7.3-.3h-.2c-.8 0-1.7 0-2.6-.2 0 0-.5-.3-.5-.6-.2-.2-.1-.6 0-1V73l.1-1.8.5-7.2.1-3.6.1-1.6v-.2c.1-.5.1-1.1.3-1.6.2.5.2 1 .3 1.6l.9-.4 1.4-4c1.5-4.1 2.3-8.5 2.5-13-1.1.8-2.4 1.3-3.5 2h-.1a9.2 9.2 0 0 0-3.2 2.3 50.8 50.8 0 0 0-4.8 13.7 72.2 72.2 0 0 0-1.4 13l-.1.8v.6l-.3.3c-.1.3-.5.3-.7 0l-.2-.6v-.5a125.4 125.4 0 0 1 .7-7.5A67 67 0 0 1 8 47.1c.5-1.1 1.2-2.2 2.2-3 .8-.6 1.9-1 3-1.5l3.6-1.5h-.1c0-.1 0-.2.2-.3l.1-.1h.1l.5-.4c.3 0 .4.2.3.4h.2c1 2.4 1.5 4.8 2.7 7 1 1.6 2.1 3 3.7 4 .9.6 1.8 1 2.8 1 1 .1 1.8-.1 2.6-.6 1.5-1 2.5-2.5 3.2-4.1a23 23 0 0 0 1.6-5.4c-1 0-2.1-.5-2.8-1.2-.3-.4-.6-.9-.7-1.4-.2-.5-.1-1 0-1.5Zm-8.6-1.3c.1-.2.4-.3.6-.2.3.1.4.3.3.6 0 .3-.2.6-.3.8l-.6.8c-.4.4-.8.8-1.3 1a5 5 0 0 1-1.5.8h-.2c-.4 0-1 .2-1.4 0 .2-.2.5-.2.7-.3a6.2 6.2 0 0 0 2-1 4.4 4.4 0 0 0 1.4-1.8l.3-.7Z" fill="#000"/><path fill-rule="evenodd" clip-rule="evenodd" d="M37 26.5c-.4-4.7-1.6-8.8-7.1-9-2.5 0-5 .5-7.4 1.5-5.5 2.8-7.3 13-2.4 17v.2a19 19 0 0 0 3.3 1.7c3 1.3 6.5 1.8 9.6.4 4.7-2 4.8-7.5 4-11.8Z" fill="#fff"/><path fill-rule="evenodd" clip-rule="evenodd" d="M46.2 24.3c.2-.1.3-.4.4-.6V23l-.2-.7v-.1c.2-.5.5-.9.4-1.4a1 1 0 0 0-.2-.4v-.3c.2-.5.2-1 0-1.5l-.1-.8-.1-.6-.4-.9V16l-.4-.3-.2-.5-.1-.2c0-.2.2-.4 0-.7L45 14h-.3c-.3-.2-.5-.5-.8-.6l-.9-.7-.2-.3-.2-.6c0-.1 0-.3-.2-.3-.2-.2-.7-.2-1-.2v-.1l-.1-1.1c0-.2-.3-.2-.4-.1-.3.2-.6.2-.9.2-.4-.4-2.3-2-2.5-2v-.1l-.6-.6-.1-.1a1.2 1.2 0 0 1 .2-.6c.2-.2 0-.6-.3-.4l-.7.3-.3-.1-1-.4-.4-.2c0-.3-.4-.5-.7-.5a.6.6 0 0 1 .1-.2c.2-.2 0-.6-.3-.4l-.3.1h-.4a4 4 0 0 0-.8.5.7.7 0 0 0-.6-.3.7.7 0 0 0-.7-.3c0-.3-.3-.6-.6-.6s-.6.1-.7.5V5a3 3 0 0 0-1-.3c-.6 0-1.2 0-1.8.2h-.2l-.3-.2c-.1-.2-.5 0-.4.2 0 .1 0 .2-.2.3a2.2 2.2 0 0 1-.9 0 .7.7 0 0 1-.3-.3c-.2-.4-.8-.5-1-.1-.3-.2-.7 0-.9.3 0 .1-.2.2-.5.2l-.5.1H21l-.3.1c-.6.1-1.1.1-1.7-.1-.5-.2-1 .3-.9.8l-.4.2a1.7 1.7 0 0 0-.7.9l-.4.2-.5-.2c-.1-.1-.4 0-.4.1 0 .3-.1.6-.3.8L14 9l-1.5.4c-.2 0-.3.2-.2.4l.3.4-.7.8c-.7.7-1.2 1.5-1.7 2.4l-.5.2c-.2.1-.3.3-.1.5l.1.2a3 3 0 0 1-1 1.1l-.3.4h-.1c-.1.2-.2.4 0 .5l.2.3v.2l-1 1.3h-.1c-.5.3-.5.9-.3 1.3-.1.8 0 1.5.2 2.2a2 2 0 0 0-.5 1c-.2.7-.2 1.8-.2 2.5-.3.3-.5.6-.6 1l-.3.2-.2.3c0 .5.2.8.5 1.2l.4.7.4.5-.1.2c-.3.5-.3 1 0 1.4v.5c.9 1 1.5 2 2.6 2.5-.2.6-.2.9 0 1.4 0 .3.3.8.6.9h.3a492.1 492.1 0 0 1 .8 1.1c0 .2.2.4.4.3l.6-.4.1.1.4.6c0 .2.2.6.5.6 0 .1.3.2.4 0l.3.6c.1.4.6.6 1 .4l.1.1.3.2c0 .2.3.3.4.2H16.4l.5-.2c.2.3.6.5.8.6.4.2.8.1 1 0l.4.5h.3l.4-.4.3-.1 1-.4.5-.4.5-.4.3-.1c.4-.2.6-.6.6-1a6.9 6.9 0 0 0 .5-3v-.5l-.1-.1a52.9 52.9 0 0 0 .2-1c.2-.1.3-.5.1-.7 0-.2-.2-.3-.3-.4 0-.6.2-1.6-.2-1.7l.1-.3c0-.4 0-.8-.2-1.2l-.1-.2v-.3l-.2-.6V27a71.8 71.8 0 0 0 0-1c0-.5.3-.8.7-1.2h.2c.3 0 .7-.2 1-.1h1l.3-.4h.9c.3 0 .6-.1.7-.3h.8c.2 0 .4 0 .5-.2h.3c.3.1.6.3 1 .2.2 0 .3-.1.5-.3l.1-.1.7.3h.6l.5-.2.7.2c.4.2.8.2 1.1 0l.5-.2.7 1.6c.5 1.5.6 6 .4 7.3-.3 1.1-.6 2.1-1.1 3.1a5 5 0 0 1-2 2.2c-1 .5-2 .6-3 .6a10.7 10.7 0 0 1-3-.7h-.5c-.3-.2-.4-.2-.7 0-.2 0-.2.3-.1.5.2.4.5.4.8.5a27 27 0 0 0 3 .6 6.9 6.9 0 0 0 4-.8l-.2.2c-.1.2 0 .4.2.5l.1.1c.2.4.5.6.9.6H38.3l.8-.2.4-.3h.2l.6-.6c.3.1.7 0 .7-.3.1-.6.9-.9 1.2-1.3.3-.4.5-.8.5-1.2.8-.4 1.2-1.3 1.3-2.1V33l.1-.1.5-1 .7-.2c.6 0 .7-.8.1-1 .2-.4.1-.8 0-1.2v-.1c.3-.4.5-.8.5-1.3l.4-.2c.3 0 .3-.4.1-.6l-.2-.2c.2-.4 0-.9-.2-1.2l.6-.7v-.6c-.2 0-.3-.2-.4-.3Z" fill="#000"/><path fill-rule="evenodd" clip-rule="evenodd" d="M33.2 34.2c.3 0 .6-.2 1 0 .2.2.2.5 0 .8-.2.2-.5.2-.8.2a7.7 7.7 0 0 1-1.5 0l-.2-.1c-.1 0-.2 0-.3-.2-.1-.3.8-.5 1-.5l.8-.2Zm.5-2.9c-.1.2-.3.3-.6.3a3 3 0 0 1-1.7 0 .5.5 0 0 1-.3-.2V31l.2-.2h.3c.3.1.8.3 1.2.2.2 0 .4 0 .6-.3v-.3L33 30l-.6-.2-.2-.1-.1-.1v-.1c.4-.2 1-.1 1.3.2.2 0 .4.3.5.5v.6c0 .2 0 .4-.2.5Zm-6.4-3.9.2.2v.2l.4.5c0 .2.3.3.5.1V28c.1-.3.5-.6.8-.3.6.8-.3 1.8-1.2 1.6-.4 0-.7-.4-.9-.8 0-.3-.2-.9.2-1Zm7.6.5c-.3-.6.7-.9.8-.3 0 .6-.1 1.5-.9 1.6-.9 0-1.2-1-1.2-1.7h.3c.1.4.2 1 .7 1 .4 0 .4-.4.3-.6Zm.6-1.8c.5 0 .5.7 0 .8H25.4c-.1 0 0-.2 0-.2 1.7-.3 3.4-.3 5-.4l5.1-.2Z" fill="#000"/><path fill-rule="evenodd" clip-rule="evenodd" d="M38.5 28.2c-.5 3.6-4.3 4-5 .4.2 0 .3-.1.2-.3 0-.8.3-1.6 1-2 .7-.5 1.6-.6 2.4-.6 1.6 0 1.6 1.4 1.4 2.5ZM33 26.6c-.5 0-1.2 0-1.6.3a2 2 0 0 0-.8-.9c1.2 0 2.5 0 3.7-.2-.3.2-.6.5-.7.9l-.6-.1Zm-2.3 2c-1.4 4.8-4.9 2.7-5.3 2-.6-1-.8-3.5-.2-4.1.9-.6 2.1-.5 3.1-.5 1.9 0 3.2.6 2.4 2.6Zm9.5-2.3a2 2 0 0 0-1.2.1c0-.4-.4-.8-.8-1H38c-1-.4-2-.2-3 .1l-4.6.4c-1.4-.6-5.7-.7-6 .8-.3 0-.9-.3-1.1 0-2-.3-4.2.2-6.3.4-.5.1-.8 1.1-.2 1.1.4 0 0-.6.5-.6 2-.3 3.9-.6 6-.6-.2.3 1.2.4 1.3.2-.4 1.2 0 3 .6 3.9.8 1 3 1.3 4 .7 1.3-.7 2.6-3.8 2.2-4.8.7-.2 1.3-.1 2 0-.1.4-.4 1.5 0 1.6 0 2.2 2 3.5 3.8 2.6 1.5-.7 2.1-3 1.9-4.5.2.4 1.9 0 1-.4Z" fill="#000"/></g><rect x=".5" y=".5" width="49" height="49" rx="16.5" stroke="#F5F4F3"/><defs><clipPath id="a"><rect x="1" y="1" width="48" height="48" rx="16" fill="#fff"/></clipPath></defs></svg>