<svg width="50" height="50" fill="none" xmlns="http://www.w3.org/2000/svg"><g clip-path="url(#a)"><rect x="1" y="1" width="48" height="48" rx="16" fill="#F5F4F3"/><path fill-rule="evenodd" clip-rule="evenodd" d="M43.5 52c-.4-1.1 0-2.5-.2-3.8l-.5-3.4c0-.6.5-.8.6-1 .7-2.2-4.3-7.3-4.6-7.5l-1.4-.7c-1.3-.5-2.9-1.8-4-1-2.1-3-1.3-7-2.4-7.4-1.2-.4-4.5-1.3-6.4-.2-1.1.9-1 2.3-1.6 3.5-.3.6-.4 1.4-.8 1.8-1.2 1.3-2.7 1.5-4.4 1.7l-.3-.3c-2.9 1-6.2 1.3-9.4 6.8-.5.8-1.7 2-1.3 3-2.7 6.3-5.3 20.5 2 24 .3.2 2-.6 2.2-.6.4 0-.4 1 0 .9 3 .2 19-.4 25.2.2 4.3 0 7 .7 8 0-.4-1-.4-2-.3-3 .9-.7-.2-5.5-.1-6.8.8-1 .2-4.9-.3-6.2Z" fill="#fff"/><path fill-rule="evenodd" clip-rule="evenodd" d="M42.2 45a19.2 19.2 0 0 0-1.6 2.9l-.1-2.2c0-.1-.1-.1-.2 0l-.1 2h-2.3l.5-.5c.2-.3.4-.6.1-.8-.3-.3-.9 0-1.2.2a7 7 0 0 0-.4.2c-.2-.5-.7-.6-1.2-.5l-1 .2a41.7 41.7 0 0 1-3.6.7h-3.2c-.1 0-.3-.2-.3-.4l.2-.6c.3-.6.4-1.3.3-2l-.2-.5 1.7.2h3.2A437.9 437.9 0 0 0 43 44a11.5 11.5 0 0 0-.3.4l-.5.7Zm-2.4 22.6h-1.6l-3-.1-5.8-.2h-5.9c-2 0-4 .2-5.9.3l-3.2.2h-3.2v-.7l1-.6a27.4 27.4 0 0 0 4-3c-.2.2 0 .5.2.6.4.2.8.1 1.2.1a505.5 505.5 0 0 1 17.8 0h4l1-.2.2 1.9.1 1.2v.5h-1ZM40 50a75 75 0 0 0-.2 1.4h-3.3l-1.6.1h-.8l-.5.2 2.3-2.3 1.5-1.2c.3.2.7.2 1.1.2l1.5.1V50Zm-20 9.3c1.1.4 2.4.4 3.6.5l4 .2 7.8.3a531 531 0 0 1 4.8.1c0 1 0 2 .2 3v.4a51.7 51.7 0 0 0-4.5-.4c-1.6-.1-3.1-.3-4.7-.3h-9.5a535.6 535.6 0 0 0-4 0l-1.4.1c1.3-1.2 2.5-2.6 3.7-3.9Zm4.1-4c2 .4 4 .4 6 .5h9.6l.3-.2a142.6 142.6 0 0 0-.1 3.6c-2.6-.1-5.2-.3-7.9-.3l-7.8-.2c-1.3 0-2.6 0-3.9.2l1.5-1.5 2.3-2Zm1.5-1.4c1.9 0 4 .6 5.7-.3.7-.4 1.4-1 2-1.7v.2l.7.1h.8l1.7.2H40v2.5l-.3-.1h-6.1a388.2 388.2 0 0 0-9.1.3l1.1-1.2Zm-16 13.2-1.1.1h-.1A5 5 0 0 1 6 64.7c-.6-1.2-1-2.4-1.2-3.7-.5-2.6-.5-5.2-.2-7.8a40.7 40.7 0 0 1 3.6-12.6c1 .7 1.8 1.7 2.6 2.7l2.5 3.8-.2.7-.2 1.1c0 .9-.2 1.7-.3 2.5a118 118 0 0 1-.7 5.3l-1.6 1a12.1 12.1 0 0 0-3.2 2.7c2-1.8 4.2-2.8 6.5-4a47.8 47.8 0 0 0 6.9-4l3.4-3c.2-.2.1-.4 0-.5.1-.8.3-1.4.8-2l1.3-1.5.6-.7.4-.8c.2-.3.3-.1.4.2v1c0 .3 0 .7-.2 1-.2.3-.3.5-.2.9.1.5.8.8 1.3 1H30a30.5 30.5 0 0 0 4.5-1l1.2-.2h.5c-2 1.2-4.3 2-6.5 2.7-.3.1-.2.6 0 .5a28.1 28.1 0 0 0 7-3l.7-.2.7-.2c.1.1-.2.4-.3.5-.5.7-1.2 1.2-2 1.6-.7.5-1.5.8-2.3 1.1L31 51c-.3.2 0 .7.3.6l1.3-.5 1.2-.5.8-.4-1.2 1.2c-.7.6-1.3 1.3-2.1 1.8-.9.4-1.8.5-2.7.5H27a4.8 4.8 0 0 0-1.4.2 39.7 39.7 0 0 0-6.7 5.8l-3 3.1a30.3 30.3 0 0 1-6.3 4.4Zm0-28.6 1.5-1.4H15.1a302.2 302.2 0 0 1 4.7-.1 34 34 0 0 0 2.4 2.4H22a1218.4 1218.4 0 0 0-10.4 0l-1.6.2H9l.9-1.1Zm8-4.5c-.1 0-.1 0 0 0v.1l.4.7a13 13 0 0 0 1 1.3h-4l-2 .2h-1c1.5-1 3.2-1.9 5-2.5-.1 0 0 .1 0 .1.2-.2.4-.1.6 0Zm6.7 12.7-.1.2-.4-.2H14.8a4 4 0 0 0-.9.1l-2.2-3.4c1.8.2 3.7.2 5.6.3l6.3.1a389.6 389.6 0 0 1 3 0v.1l-.7 1c-.5.6-1.1 1.1-1.5 1.8ZM22 50.3c0-.1-.2-.3-.5-.3l-4.3.2-2 .2-1 .1c-.3 0-.6 0-.8.2a71.2 71.2 0 0 0 .3-3.4l1 .2H16c1 .2 1.8.1 2.7.2l5.2.1v1l-.3.1-1.5 1.4ZM17 54l-.2-.2c-.3-.3-.9-.1-1.2-.1h-1.3L13 54a93 93 0 0 0 .3-2.8l.7.1h7.1l-4 2.8H17Zm-4 .5h1.5l1.2.1h.3l-3.3 1.7.2-1.8ZM24.7 41c2.5 1 5.6 1.1 7.7-.6h.6l1.3.1 2.4.1h5.3a11.3 11.3 0 0 1 1 2.2H28.1l-1 .2c-.4-.3-1-.2-1.4-.2a402.7 402.7 0 0 0-11.2 0l-3.2.3-.2-.3c-.7-1-1.6-2.1-2.8-2.4l.1-.2c.9.2 1.8.2 2.7.2a100.3 100.3 0 0 0 10.5.3H23l.5-.3 1.3.6Zm9.6-3.5h1l1.2.1h2.1c.3 0 .5-.2.5-.4.9.7 1.6 1.5 2.3 2.4h-7.1l-1.2.1a5.8 5.8 0 0 0 1.2-2.2Zm10 31.2c.2-.4.1-.8.1-1.2a76.6 76.6 0 0 1 0-3.6 172.3 172.3 0 0 0-.9-14.4L43 45l1-1.3v-.2c.3-.1 0-.5-.2-.4a14.9 14.9 0 0 0-1.6-3.5l-.9-1.1a14.3 14.3 0 0 0-4.6-3.4l-.7-.4c-.3 0-.5-.2-.8-.3-.4-.2-.9-.2-1.3 0h.9l.7.4 1.3.7 1.7 1h-1.7l-1.2.1h-1V35c0-.3-.3-.3-.5-.2l-.5-.6c-.3-.4-.6-.8-.7-1.3l-.5-1.5-.2-.7-.2-.7h-.1v.8a9 9 0 0 0 .4 2.5l.8 1.5c.2.3.6.6 1 .8 0 .6 0 1.1-.2 1.6-.1.8-.5 1.4-.9 2a5.4 5.4 0 0 1-3.8 2c-1.6.2-3.2-.2-4.6-.9-1.5-.7-2.8-1.9-4-3.2l-1.9-2.2-.5-.6.6-.1a9.5 9.5 0 0 0 3.2-1c1.3-.9 1.8-2 2-3.4 0-.5-.7-.6-.8-.1-.1.7-.3 1-.5 1.7s-.6 1-1.2 1.3l-1.8.7-1 .4c-.3 0-.5 0-.7.2a.9.9 0 0 0-.4-.2H17.2a15.2 15.2 0 0 0-7.1 3.8 17 17 0 0 0-4.2 7c-.9 2.5-1.4 5.2-1.8 8-.3 2.6-.3 5.4.1 8.1.3 1.5.7 3 1.3 4.3.6 1.2 1.5 2.6 3 2.7.5.5 1.3.2 2-.1l.2-.1v.5c-.1.4.4.4.5.1.9.2 1.8.2 2.7.2l2.9-.1 5.8-.3c4-.1 7.9.1 11.8.3h3.3c1.2.1 2.3.1 3.4.3.4 0 .6-.4.5-.6v-.6a123.5 123.5 0 0 1-.5-7.7 377.1 377.1 0 0 1-.4-11.2l.4-.7a51 51 0 0 1 1.7-2.5 124.7 124.7 0 0 1 1 18.2v4l.1 1.4c.1.2.5.2.5 0Z" fill="#000"/><path fill-rule="evenodd" clip-rule="evenodd" d="M36 12.7c-1.7-2.3-4.8-3-7.5-2.4-5.3 1-10.3 5-11.3 10.5-1.4 3.4-.5 8.6 3.8 9h1.8c3.7.6 8 3.1 11.3.1.1.2.4.2.5.1 1.4-.5 1.5-2 1.6-3.4l.4-5c0-2.8 1.2-6.4-.6-8.9Z" fill="#fff"/><path fill-rule="evenodd" clip-rule="evenodd" d="M25.8 6.7C28 6.7 32 7.7 34 9c3.1 2 3.4 5.8 3.2 6.5 0 .3-.2.5-.4.4.2 1.8.2 2.8.2 4.6v1.2a157 157 0 0 1 .2 2.7l.3.2.2.2.2.2.8.7v.1c.5.5 1.1 1 1.4 1.6.3.5.2 1.2-.2 1.7a2 2 0 0 1-.6.4 2 2 0 0 1 0 2 2 2 0 0 1-1.9 1v.3c-.4.5-1 .6-1.5.6a8 8 0 0 1-3.5-1c-.4 0-.7-.3-.8-.6H31l-1.8-.6.1-.2h2c.5 0 1.1-.2 1.7-.5 1-.4 1.8-1 2.3-2 .6-1.2.6-2.7.6-4 0-1.5.2-3 .3-4.4v-.7l.4-3.5c-.7 0-3.6-1-4.6-2.8-1.7 3.7-10.6 2.2-11 8v-.4h-.2c-.2-.4-.8-.3-1-.2-.3 0-.5.2-.7.4a2 2 0 0 0-.9 1.2c-.2 1 .4 2 1.3 2.4l1.5.9c.5.3.9.6 1.2 1 1.4 1.6 2.3 4 1.6 6 0 .2-.2.4-.4.4s-.5 0-.7-.3v-.3c-.2.4-.6.7-1 .9-.4.2-.9.1-1.3-.1-.7.5-1.5 1-2.3.9-.6-.1-1.2-.4-1.6-1l-1.4.7c-.8.2-1.6.4-2.3 0-.6-.4-.8-1.2-.7-1.9l.1-.2c-.5 0-1 0-1.4-.2-.4-.1-.8-.4-1-.8a2 2 0 0 1 0-1.6c.2-.8.7-1.5 1.3-2.1a9 9 0 0 1 2-1.6c.7-.4 1.4-.8 2.2-.8-.2-.9-.1-1.7-.2-2.6v-2.3l.1-4c.2-1.1.4-2.3 1-3.3.5-1.1 1.2-2 2.2-2.8 2-1.6 4.7-2.4 7.3-2.6Zm-7 15.5c.3-.4.8-.5 1.2-.4.7 0 1 .6 1.4 1 .4.6-.4 1-.6.6v-.2l-.7-1c-.4-.2-.9-.3-1.2 0 0 .1 0 0 0 0Z" fill="#000"/><path fill-rule="evenodd" clip-rule="evenodd" d="M28.2 24.4c1-.2 1.9.1 2.8.3a13.2 13.2 0 0 0 1.8.2c0-.1 0-.2.2-.3l.6-.1h.7c.4.1.8.3 1.1.6.7.7.6 1.8 0 2.5-1 1.5-3 1.6-4.7 1.5h-.1c-1.6 0-3.8.3-4.5-1.5-.2-.7-.2-1.4.1-2 .4-.8 1.2-1.1 2-1.2Zm4.8 2.5h-2.2a28.2 28.2 0 0 0 .2 1V28.2h1.8V28l.1-.7v-.4Zm-2.7 0h-1.8l.2.8c0 .3-.2.5-.4.5h2V27Zm-3.5 0 .1.4c.2.5.7.8 1.3.9-.1 0-.2-.1-.2-.3v-1h-1.2Zm8-.1h-1.5v.6l.1.6c.5-.2 1-.4 1.3-.9l.2-.3Zm-6.7-1.6c-.5.1-.9.3-1.1.7l-.2.8H28v-.4c0-.3 0-.7.2-1Zm2.2 0h-2l.1 1v.5h.2l1.7-.1v-1.3Zm2.7 0a10.7 10.7 0 0 1-2.3.1v1.3l2.2-.1h.1V26l.1-.8H33Zm.2.1.1 1.1H35c0-.3 0-.6-.3-.8-.4-.3-1-.2-1.5-.3ZM31.7 22c.7-.4 2.4-.8 2.5.5 0 .5-.4 1-.9 1.2-.5.2-1.3.4-1.7 0-.3-.3.1-1 .5-.7.2.2.7 0 1 0 .2 0 .6-.3.5-.6-.1-.3-.5-.4-.8-.4l-1.1.1Zm2.8-2c1 0 1.5 1 1.3 1.8 0 .2-.2.3-.3.3h-.1c-.2 0-.3-.2-.3-.4 0-.4 0-.9-.5-1-.4 0-.6.3-.6.7h-.1c-.3-.1-.4-.5-.3-.8.2-.4.5-.6 1-.6Zm-7 .2c.7-.2 1.5.1 1.8.8.1 0 .2 0 .2.2s0 .3-.2.5-.6.1-.7-.2c0-.4-.5-.6-.9-.5-.4.2-.4.6-.7.9H27c-.3-.1-.3-.6-.2-.9.2-.3.5-.7.9-.8Zm-.9-2c.6-.6 2-1.2 2.4-.1 0 .2 0 .4-.3.5h-1c-.2 0-.5 0-.7.2-.6.5-.8 1.3-1.2 1.9-.1-1 .2-2 .8-2.6Zm7.2-.6c.4-.2.8-.2 1.2 0a2.2 2.2 0 0 1 1.3 1l.1.4c.3.1.5.5.2.8-.2.2-.4.2-.6.2-.4-.1-.5-.5-.6-.8-.1-.3-.3-.5-.5-.6-.5-.4-1.2-.5-1.8-.3v-.1l.3-.4.4-.2Z" fill="#000"/><path fill-rule="evenodd" clip-rule="evenodd" d="M35.6 17.7c1.4 0 2.1.3 2.4.4h.3c.4.2.5.6.3.9l-.1 1.7c-.2 2.3-1.2 2.7-1.9 2.8h-1c-.5 0-1-.1-1.6-.4a3 3 0 0 1-1.3-1.9V20l-.7-.1h-.7l-.4.2v.2l-.1 1c-.1.6-.3 1-.7 1.4a2 2 0 0 1-.4.5c-.7.5-1.6.7-2.5.7a3.6 3.6 0 0 1-2.9-2.1c-.2-.5-.3-1-.8-1.2h-.1c-.3 0-.5 0-.6-.3l-.1-.4a52.3 52.3 0 0 1-5 .3s-.7.3-1 0c0 0-.1-.2 0-.4.1-.3.8-.5 1-.6h5.1c.3-.2.6-.2 1-.2.2-.2.6-.4.9-.4l.1-.1a6.8 6.8 0 0 1 3.4-.3l.7.1c.5 0 .9.2 1.3.3h.1l1.4.2 1-.4h.1c.8-.4 2-.7 2.8-.7ZM29 19c-.3 0-.4.4-.1.5.2 0 .3.1.5.3.1.3.5 0 .4-.2-.2-.3-.5-.5-.8-.6Zm8.3-.2h-.3v.3l.2.3c0 .3.5.3.5 0 0-.2-.2-.5-.4-.6Z" fill="#000"/></g><rect x=".5" y=".5" width="49" height="49" rx="16.5" stroke="#F5F4F3"/><defs><clipPath id="a"><rect x="1" y="1" width="48" height="48" rx="16" fill="#fff"/></clipPath></defs></svg>