<svg width="43" height="32" fill="none" xmlns="http://www.w3.org/2000/svg"><g clip-path="url(#a)" fill="#323334"><path d="M7 6.4a4.3 4.3 0 0 0 .7 6.8l11.7 8.1-5.7-13C12.5 5 9.3 4.4 7 6.3M17 0c-1.8 0-4.7 2.4-3.4 5.9l5.9 13.9 2-14.7c.5-3.6-2.2-5.3-4.4-5M22.5 4.6h1s.7 0 .8.3c-.5.3-1.7.4-1.5 2.3l1.9 12.6 5.8-14A4.2 4.2 0 0 0 26.7 0c-2 0-4.3 1.5-4.2 4.6M30.3 8.3l-5.5 13L36.5 13a4.2 4.2 0 0 0-2.3-7.8c-1.4 0-3 .8-3.9 3M35.2 15l-11 7.7h13.6c2.8 0 4.6-2.9 3.8-5.5-.6-1.7-2.2-3-4-3-.8 0-1.6.2-2.4.8M6.6 22.7H20L9 15c-2.6-1.7-5.4-.7-6.5 2a4.3 4.3 0 0 0 4.1 5.7M1.6 28.3c0 1.3 1 3.7 5.2 3.7 3.8 0 5-1.7 5-2.5h-3s-.1 1-1.8 1c-1.6 0-2-1.4-2-2.2 0-.8.4-2 2-2 1.7 0 1.8.9 1.8.9h3c0-.8-1-2.6-5-2.6-4.1 0-5.2 2.6-5.2 3.7ZM32.3 28.3c0 1.3 1.1 3.7 5.2 3.7 3.8 0 5-1.7 5-2.5h-3s0 1-1.7 1-2.1-1.4-2.1-2.2c0-.8.4-2 2-2 1.7 0 1.9.9 1.9.9h2.9c0-.8-.9-2.6-5-2.6s-5.2 2.6-5.2 3.7M19.8 24.8v4.4l-3.4-4.4h-3.9v7h2.6v-4.5l3.4 4.5h3.9v-7h-2.6ZM28.2 30.1H26v-1.3h2.2c.5 0 .8.3.8.7 0 .4-.3.6-.8.6Zm-2.2-4h2.1c.4 0 .7.3.7.6s-.3.5-.7.5h-2v-1Zm4.3 2c.5 0 1.5-.6 1.5-1.7 0-1.5-2.8-1.6-3.3-1.6h-5.2v7h5.2c2.6 0 3.6-.8 3.6-2.1 0-1.4-1.8-1.6-1.8-1.6Z"/></g><defs><clipPath id="a"><path fill="#fff" transform="translate(1)" d="M0 0h42.1v32H0z"/></clipPath></defs></svg>