<svg width="71" height="20" fill="none" xmlns="http://www.w3.org/2000/svg"><g clip-path="url(#a)" fill="#323334"><path d="M63.4 19.1c-.9 0-2.3-.4-2.8-.6l-.2-.1V14.6h.4l.2-.1.2.4c.7 1.7 1.5 2.6 2.5 2.9H65c.8-.3 1.3-1 1.3-1.8 0-1-.5-1.5-2.6-2.3a5.5 5.5 0 0 1-2.3-1.3c-.6-.6-.9-1.3-1-2.2 0-1.2.4-2.1 1.2-3 .7-.7 1.8-1.2 3.2-1.3 1.2-.1 3.1.1 4.1.5l.2.1V10H69c-.4.2-.4.2-.6-.4C67.8 8 67.1 7.2 66 7a1.6 1.6 0 0 0-2 1.6c-.1.5 0 .8.3 1.1.4.5 1.1.9 2.4 1.4 1.7.7 2.4 1.3 2.9 2.1.2.6.3 1 .3 1.8 0 .7 0 .8-.2 1.2-.5 1.4-1.5 2.3-3.2 2.8l-1.7.1h-1.4ZM0 18.8v-.4c0-.4 0-.4.8-.5.6-.1.8-.2 1-.6.6-.7.7-2 .7-7.5 0-5.2 0-6.3-.6-7-.2-.4-.7-.6-1.3-.7H0v-.9h14.2v.2l.1 2.5v2.3l-.3.1c-.6.2-.6.2-.8-.4-.6-1.6-1.3-2.5-2.2-3-.7-.3-1-.3-2.8-.3H6.6v.2L6.5 8v1.5H7a24.2 24.2 0 0 0 2-.2c.6-.3 1-.8 1.2-1.8v-.4h.9v6h-.8l-.1-.5c-.2-1-.7-1.6-1.2-1.8-.2-.1-.8-.2-2-.2h-.5v1.1l.1 3.8c.2 1.3.5 2 1 2.2l.8.2.7.1c.1.1.1.8 0 .8h-9ZM24.8 18.8v-.7h.2l.4-.2c.5 0 .8-.3 1-.8l.2-4.5c0-3.3-.1-4.1-.5-4.5-.1-.3-.3-.4-.7-.4l-.5-.1-.1-.3v-.4l5.4-1h.1v2.6-.3c.7-1 1.3-1.7 2.2-2 .4-.3.8-.4 1.3-.4.7 0 1.4.3 1.4.5L34 9.7l-.5-.2c-.5-.3-1-.4-1.5-.4-.6 0-1.3.2-1.6.5l-.1 2 .1 5c0 .7.3 1 .7 1.3l1.3.1v.8h-7.5Z"/><path d="M24.8 11.4c-.3-2.2-1.2-3.8-2.8-4.7a7 7 0 0 0-6.2-.2 6 6 0 0 0-3 3.5 9 9 0 0 0 0 5.2c.3 1 .8 1.7 1.5 2.4.8.8 1.8 1.3 3 1.5h2.3l.8-.2a6 6 0 0 0 4.3-4.8c.1-.5.2-2 0-2.7Zm-4.6 5.8a2 2 0 0 1-1 1c-1.4.3-2.4-1-2.8-3.7v-4.3c.3-2.2 1-3.4 2-3.4.6 0 .8.2 1.2.5.9 1 1.3 2.7 1.3 5.4a10 10 0 0 1-.7 4.5ZM47.3 10.4c-.5-2.3-2-3.9-3.9-4.3h-1.1a5 5 0 0 0-2.1.4l-.4.2a81 81 0 0 1 0-5.8l-5.4 1v.3c0 .3 0 .2.5.4l.5.2c.2.1.4.4.5.9l.2 3v11.9h.3l2.5.5h3a6 6 0 0 0 5-3.8 9.3 9.3 0 0 0 .4-5Zm-3.8 3.3c-.2 1.8-.8 3.2-1.6 3.9-.3.3-.6.4-1 .5h-.8L40 18l-.2-8.5V7.7h.4c.3-.2.5-.2.8-.2.4 0 .5 0 .8.2.9.4 1.5 1.5 1.8 3.1v3ZM59.6 11c-.2-2.3-1.1-3.9-2.7-4.7a6.2 6.2 0 0 0-5 .2c-1.5.7-2.6 1.9-3.1 3.6-.3.9-.4 1.6-.4 2.7l.1 1.5a6 6 0 0 0 4.9 4.8h2.3c.8-.2 1.7-.5 2.3-1 .7-.4 1.4-1.1 1.4-1.3 0-.2-.2-.5-.3-.5l-.4.3c-.7.4-1.4.6-2.3.6-1.3 0-2-.3-2.9-1.1-.3-.4-.5-.6-.6-1-.4-.7-.7-1.6-.7-2.6V12h7.4v-1.1Zm-4.6-.1h-2.8v-.8c.4-2 1.2-3.3 2.1-3.3.9 0 1.4 1.2 1.5 3.4v.6H55Z"/></g><defs><clipPath id="a"><path fill="#fff" transform="translate(0 .4)" d="M0 0h70.4v19.2H0z"/></clipPath></defs></svg>