<svg width="81" height="20" fill="none" xmlns="http://www.w3.org/2000/svg"><g clip-path="url(#a)"><path d="M11 5v10a4.2 4.2 0 1 0 8.5 0V5A4.2 4.2 0 1 0 11 5Zm3 10V5A1.1 1.1 0 0 1 15.3 4h.1a1.1 1.1 0 0 1 1.2 1v10a1.2 1.2 0 0 1-1.2 1.2 1.2 1.2 0 0 1-1.2-1.2ZM43.7 1h-8.5v3H38v14.8h3V4h2.7V1Zm8.8 0v14a1.1 1.1 0 1 1-2.3 0V1h-3v14a4.2 4.2 0 1 0 8.4 0V1h-3Zm27.4 3V1h-7.4v17.8h7.4v-3h-4.4v-4.6h2.8v-3h-2.8V4.1h4.4ZM32.3 18.9h-3.1L27 10.4A2.4 2.4 0 0 0 28.9 8V5.3a1.2 1.2 0 0 0-1.2-1.2h-1.2v14.7h-3V1h4.2a4.2 4.2 0 0 1 4.2 4V8a4.7 4.7 0 0 1-1.7 3.8l2.1 7ZM65.7 1v9.7l-3-9.7h-3.1v17.7h3v-8.6l2.9 8.6h3.3V1h-3ZM1 1.3v17.8H4v-7.6h3v-3H4V4.3h4.6v-3H1Z" fill="#323334"/></g><defs><clipPath id="a"><path fill="#fff" transform="translate(.5 .4)" d="M0 0h79.5v19.2H0z"/></clipPath></defs></svg>