<svg width="91" height="30" fill="none" xmlns="http://www.w3.org/2000/svg"><g clip-path="url(#a)"><path d="M4 10.2c0 1.1.3 1.2 1.6 1.2v.4H.7v-.4c1 0 1.3-.1 1.3-1.2v-7C2 2.2 1.7 2 .8 2v-.4h8.5V4H9c-.3-1.1-.8-1.5-2.8-1.5H4.6c-.5 0-.6 0-.6.5v3.3h1.8c1.6 0 2-.3 2.1-1.3h.4v3.6h-.4c-.2-1.2-.8-1.6-2.1-1.6H4v3.3Zm10.2 0c0 1.1.2 1.2 1.5 1.2v.4h-5.1v-.4c1.2 0 1.6-.1 1.6-1.2v-7c0-1-.3-1.2-1.6-1.2v-.4h5.1V2c-1.2 0-1.5.2-1.5 1.2v7Zm12-6.8c0-1-.2-1.4-1.3-1.5v-.4h3.6v.4c-1.1 0-1.4.5-1.4 1.5V12h-.5l-7-8.1v6c0 1 .2 1.4 1.4 1.5v.4h-3.7v-.4c1.1-.1 1.4-.5 1.4-1.6V3a1.9 1.9 0 0 0-1.4-1v-.4h2.8l6.2 7V3.5Zm5.6 4.7 1.5-4L35 8h-3.1Zm7.3 3.7v-.4c-.8 0-1-.2-1.3-1.2l-3.6-8.9h-.5l-3.8 9.2a1.4 1.4 0 0 1-1.3 1v.3H32v-.4c-.7 0-1-.1-1-.6.1-.7.3-1.3.6-1.9h3.7c.3.6.5 1.2.6 1.9 0 .5-.4.6-1 .6v.4H39Zm10-8.4c0-1-.2-1.4-1.4-1.5v-.4h3.7v.4c-1.2 0-1.5.5-1.5 1.5V12h-.5l-7-8.1v6c0 1 .2 1.4 1.4 1.5v.4h-3.7v-.4c1.2-.1 1.5-.5 1.5-1.6V3A1.8 1.8 0 0 0 40 2v-.4H43l6.2 7V3.5Zm13 6a5 5 0 0 1-4.6 2.7c-3.3 0-5.3-2.2-5.3-5.5a5.4 5.4 0 0 1 5.4-5.4l2.9.7c.3 0 .4-.2.7-.7h.5l.2 3.5h-.4C60.8 3 59.8 1.9 58 1.9c-2.4 0-3.5 2.7-3.5 4.6 0 2.8 1.2 4.7 3.8 4.7A4.5 4.5 0 0 0 61.8 9l.4.4Zm5 .8c0 1 .3 1.2 1.5 1.2v.4h-5v-.4c1.1 0 1.5-.1 1.5-1.2v-7c0-1-.3-1.2-1.6-1.2v-.4h5.1V2c-1.2 0-1.5.2-1.5 1.2v7Zm5.8-2L74.4 4 76 8h-3.1Zm7.3 3.6v-.4c-.8 0-1-.2-1.3-1.2l-3.7-8.9h-.5L71 10.5a1.4 1.4 0 0 1-1.3 1v.3H73v-.4c-.7 0-1-.1-1-.6.1-.7.3-1.3.6-1.9h3.7c.3.6.5 1.2.6 1.9 0 .5-.4.6-1 .6v.4h4.3Zm1 0v-.4c.9 0 1.2-.1 1.2-1.2v-7c0-1-.3-1.2-1.3-1.2v-.4h4.7V2c-1 0-1.4.2-1.4 1.2v7.2c0 .7.2.9 1.3.9 1.9 0 3-.3 3.8-2.2h.4l-.7 2.8H81l.1-.1ZM2.8 28c1.2 0 1.5-.2 1.5-1.3V19H3c-1.2 0-1.7.6-2 2H.7L.9 18h9l.3 2.7h-.4c-.3-1.4-.8-1.9-2-1.9H6.5v8c0 1 .3 1.1 1.5 1.2v.3H3v-.3Zm11.9-1.3c0 1.1.3 1.2 1.5 1.3v.3h-5v-.3c1.2 0 1.5-.2 1.5-1.3v-7c0-1-.3-1.2-1.6-1.2v-.4h5.1v.4c-1.2 0-1.5.2-1.5 1.2v7Zm12.3-8.7h3.6v.4c-1 0-1.2.2-1.2 1.2v7.1c0 1.1.2 1.2 1.2 1.2v.4H26V28c1 0 1.3-.1 1.3-1.2v-7.2l-3.4 9h-.5l-3.4-9v7c0 1 .2 1.3 1.4 1.5v.4h-3.7V28c1.1-.2 1.4-.6 1.4-1.6v-7c0-.7-.3-1-1.4-1v-.4h3.7l2.8 7.2 3-7.2Zm5 10.3V28c1 0 1.3-.1 1.3-1.2v-7c0-1-.3-1.2-1.3-1.2v-.4h8.6v2.3h-.4c-.4-1.1-.8-1.5-2.8-1.5H36c-.6 0-.6 0-.6.5v3.3H37c1.7 0 2-.3 2.2-1.3h.4V25h-.4c-.2-1.2-.8-1.5-2.2-1.5h-1.7v3.6c0 .6.1.8 2 .8 1.8 0 2.9-.3 3.8-2.2h.4l-.8 2.8H32v-.2h.1ZM43 25.2h.4c.4 1.3 1.8 2.8 3.2 2.8a1.6 1.6 0 0 0 1.8-1.7c0-2.4-5.3-2.8-5.3-5.8A2.8 2.8 0 0 1 46 18c1.5 0 2 .5 2.8.5a.5.5 0 0 0 .5-.5h.4v3.4h-.4a3.2 3.2 0 0 0-2.9-2.6 1.4 1.4 0 0 0-1.6 1.4c0 2.1 5.4 2.2 5.4 5.8a3 3 0 0 1-3.2 2.8c-1.8 0-2.3-.6-3-.6-.2 0-.4.2-.5.6h-.6l.1-3.5Z" fill="#323334"/></g><defs><clipPath id="a"><path fill="#fff" transform="translate(.3 .8)" d="M0 0h90.5v28.3H0z"/></clipPath></defs></svg>