<svg width="53" height="30" fill="none" xmlns="http://www.w3.org/2000/svg"><g clip-path="url(#a)"><path d="M8.9 1.4v.5l.5.1c.8.2.9.7 1.2 2.2l.8 4.2-2.3 12.3-3-15.4c-.4-1.7-.5-3 .7-3.3h.6v-.6H.1v.5l.7.2c.8.2 1 .5 1.6 2.9l5 23.6h1.3L12 10.8l3.7 17.8h1l4.9-22.9c.5-2.6.8-3.4 1.7-3.6l.7-.2v-.5h-5.4v.5l.8.2c1.2.2 1.4 1 .9 4l-3 14.6-3-15.4c-.3-1.6-.4-3 .9-3.2l.8-.2v-.6H9Zm35 0V2l1 .2c.8.2 1.2.5 1.2 1.6V23c0 2.2 0 5-2.2 5-1.3 0-2.3-1.2-2.2-1.9 0-1.2 2.2-1.1 2.3-3.1a1.8 1.8 0 0 0-1.6-2.1c-1.2-.2-2.7.8-2.7 2.9 0 2.6 1.6 5 4.6 5 3.3 0 5.4-2.2 5.4-6.4V3.9c0-1.1.3-1.5 1-1.6l1-.3v-.6h-7.8Zm-13.3-.1c-3.3 0-5.2 2.8-5.2 6.4 0 6.8 8.8 9.5 8.8 15.6 0 3-1.3 4.5-3 4.5-2.7 0-4.5-3.1-5-8.2h-.6v9h.5c.4-1.3.9-1.5 1.3-1.5.8 0 1.5 1.6 3.8 1.6 3.5 0 5.8-3 5.8-7.2 0-8.2-8.7-10.2-8.7-16 0-1.4.3-3.4 2.3-3.4 2.9 0 4 3.8 4.5 8.3h.6v-9h-.4c-.2.9-.6 1.3-1.1 1.3-1 0-1.4-1.4-3.5-1.4ZM37 9v.1Z" fill="#323334"/></g><defs><clipPath id="a"><path fill="#fff" transform="translate(0 .8)" d="M0 0h52.1v28.3H0z"/></clipPath></defs></svg>